<?xml version="1.0" standalone="no"?>
<!DOCTYPE svg PUBLIC "-//W3C//DTD SVG 1.1//EN" "http://www.w3.org/Graphics/SVG/1.1/DTD/svg11.dtd" >
<!--
2013-9-30: Created.
-->
<svg>
<metadata>
Created by iconfont
</metadata>
<defs>

<font id="iconfont" horiz-adv-x="1024" >
  <font-face
    font-family="iconfont"
    font-weight="500"
    font-stretch="normal"
    units-per-em="1024"
    ascent="896"
    descent="-128"
  />
    <missing-glyph />
    
    <glyph glyph-name="youhui" unicode="&#59074;" d="M302.905798 366.39006l200.763466 0 0-47.567365-200.763466 0 0 47.567365ZM302.905798 452.431691l200.763466 0 0-47.567365-200.763466 0 0 47.567365ZM552.636512 366.39006l200.763466 0 0-47.567365-200.763466 0 0 47.567365ZM512.218988 809.953388c-281.748942 0-510.150886-228.03253-510.150886-509.325078s228.401943-509.325078 510.150886-509.325078 510.150886 228.03253 510.150886 509.325078S793.96793 809.953388 512.218988 809.953388zM302.905798 278.249627l0-16.788361-48.967248 0 0 231.543494 249.729691 0L503.668241 541.271042l-305.692261 0 0 44.769646 305.692261 0 0 58.760289 48.967248 0 0-58.760289 305.692261 0 0-44.769646-305.692261 0 0-48.267307 249.730715 0 0-214.754109L552.636512 278.249627l0-56.311517c58.524928 0.699941 116.350938 1.51347 173.482123 2.448772-8.629541 7.459902-17.258059 14.919804-25.882484 22.384823l37.074384 28.680203c48.967248-40.572044 91.867314-78.346369 128.712477-113.322975L824.052109 128.551186c-17.258059 18.652825-35.096333 36.840046-53.513798 54.562686-121.717156-2.098801-311.173089-6.765077-568.363705-13.990642l-4.197602 51.065026c103.994516 0 205.89023 0.464581 305.692261 1.39886l0 56.661488L302.905798 278.248603zM593.908498 89.378002l-41.971927-33.576723c-23.319102 29.380144-49.436946 59.22487-78.346369 89.539292l37.774325 27.981285C545.870412 142.072131 573.387116 114.090846 593.908498 89.378002zM231.55475-14.151933c-15.389502 8.863878-31.014364 17.488303-46.868447 25.882484 26.111704 39.173185 48.496527 83.708494 67.154469 133.608997l48.967248-19.587104C278.422174 71.189757 255.338433 24.556671 231.55475-14.151933zM703.733812 35.514233c-8.863878-40.572044-40.342824-60.85909-94.435813-60.85909L439.313537-25.344856c-58.760289 0-88.140433 28.915563-88.140433 86.741573l0 82.543971 53.163827 0 0-77.647451c0-28.445866 16.089443-42.670845 48.267307-42.670845l146.899698 0c32.177863 0 50.595328 10.492982 55.262628 31.478945 4.197602 18.187221 7.225565 40.802288 9.094122 67.854411 5.596462-2.333138 22.849404-9.328459 51.764967-20.985964C712.358237 76.786219 708.395996 54.63164 703.733812 35.514233zM828.948629-4.358893c-22.384823 31.713282-51.764967 69.25327-88.140433 112.624057l39.173185 28.680203c25.182542-27.516704 56.19179-63.892169 93.036953-109.126396L828.948629-4.358893zM552.636512 452.431691l200.763466 0 0-47.567365-200.763466 0 0 47.567365Z"  horiz-adv-x="1024" />

    
    <glyph glyph-name="xi" unicode="&#59141;" d="M510.2 749.8c59.4 0 117-11.6 171.2-34.6 52.4-22.2 99.4-53.8 139.8-94.4 40.4-40.4 72.2-87.4 94.4-139.8 23-54.2 34.6-111.8 34.6-171.2s-11.6-117-34.6-171.2c-22.2-52.4-53.8-99.4-94.4-139.8-40.4-40.4-87.4-72.2-139.8-94.4-54.2-23-111.8-34.6-171.2-34.6s-117 11.6-171.2 34.6c-52.4 22.2-99.4 53.8-139.8 94.4-40.4 40.4-72.2 87.4-94.4 139.8-23 54.2-34.6 111.8-34.6 171.2s11.6 117 34.6 171.2c22.2 52.4 53.8 99.4 94.4 139.8 40.4 40.4 87.4 72.2 139.8 94.4C393.2 738.2 450.8 749.8 510.2 749.8M510.2 789.8c-265 0-480-215-480-480s215-480 480-480 480 215 480 480S775.4 789.8 510.2 789.8L510.2 789.8zM202.8 185.6l0 46 71.8 0-23 46 38.4 7.6-61.4 0 0 123 251 0 0-123L418 285.2l38.4-7.6c-1.8-5.2-6-12.8-12.8-23-5.2-10.2-9.4-18-12.8-23l66.6 0 0-46L202.8 185.6zM205.4 523.6l0 46 120.4 0L325.8 613.2l59 0 0-43.6 112.6 0 0-46-112.6 0 0-41 99.8 0 0-41L220.8 441.6l0 41 105 0 0 41L205.4 523.6zM228.4 6.2l0 146 251 0 0-146-53.8 0 0 23-143.4 0 0-23L228.4 6.2zM282.2 367.4l0-41 143.4 0 0 41L282.2 367.4zM282.2 111.2l0-41 143.4 0 0 41L282.2 111.2zM302.8 285.4c12-24 20.4-41.8 25.6-53.8l48.6 0c10.2 18.8 18.8 36.6 25.6 53.8L302.8 285.4zM517.8 523.6l0 43.6 115.2 0 0 46L692 613.2l0-46 123 0 0-43.6L692 523.6l0-41 107.6 0 0-41L528.2 441.6l0 41 105 0 0 41L517.8 523.6zM517.8 185.6l0 46 66.6 0-18 38.4 48.6 10.2c3.4-10.2 9.4-23 18-38.4 1.6-3.4 3.4-6.8 5.2-10.2l51.2 0c8.6 15.4 15.4 31.6 20.4 48.6l51.2-7.6c-1.8-3.4-4.2-10.2-7.6-20.4-5.2-8.6-8.6-15.4-10.2-20.4l74.2 0 0-46L517.8 185.8zM533.2 282.8l0 125.4L792 408.2l0-125.4L533.2 282.8zM533.2 6.2l0 146L792 152.2l0-146-53.8 0 0 23-148.6 0 0-23L533.2 6.2zM589.6 364.8l0-38.4 146 0 0 38.4L589.6 364.8zM589.6 111.2l0-41 148.6 0 0 41L589.6 111.2z"  horiz-adv-x="1024" />

    
    <glyph glyph-name="qu" unicode="&#58883;" d="M887.918183 326.619264c0 15.803941-7.844665 29.126364-21.657252 32.611745l-3.761674 1.017166c-104.395652 27.033703-205.804273 34.272571-298.761408 37.700647 0 32.522718 0 74.913177 0 135.449925L863.950306 533.398748l0 22.948665 0 0.030699c0 22.341844-18.876929 27.674293-18.876929 27.674293-91.338265 26.712385-201.493084 34.731012-281.335527 39.45357 0 43.843554 0 87.757716 0 96.762811 0 31.263028-17.83418 30.001291-35.408441 26.119891-12.533454-2.714831-37.544081-12.214183-46.692439-15.385409-30.223349-10.56052-38.653345-15.597233-38.653345-47.806819l0-59.049884c-156.274206-7.628748-265.292132-37.148062-266.890536-37.322024-18.004049-6.581905-17.044188-22.125927-17.044188-24.970718l0-28.458145 283.935748 0 0-136.091538c-173.903725-8.048303-276.036847-36.258809-277.797957-36.433794-31.126928-8.080026-29.913287-31.757285-29.913287-34.662451l0-22.575158L414.063969 303.632737c-61.572334-63.078641-163.940816-160.872944-201.085808-199.452611-38.151925-39.602973-42.469254-83.387175-30.283724-107.562784 23.714098-46.74872 84.565001-47.385217 131.813095-47.443545l395.111826 0c0.052189 0 30.827099 0 30.946826 0 72.516594 0 126.883829 46.572712 129.378649 112.030539 2.774183 73.188906-52.462862 129.553635-150.919245 117.961622-3.009544-0.352017-4.342912 1.452071-4.604878 2.842745-12.535501 62.209854-97.069803 84.98558-151.87092 24.555256-0.51984-0.611937-1.908466-2.533706-0.465604-4.503571 3.304256-4.649903 7.270591-9.30083 10.197246-12.875239 1.994424-2.437515 4.483104-2.14485 5.26798-1.797949 59.114352 24.812105 88.293929-12.202926 89.797166-36.95875 0.409322-6.100952-0.228197-12.314467-0.228197-16.73515 0-4.587482 8.482185-9.553587 12.501732-8.833179 7.095605 1.425466 19.025309 5.553483 40.47483 3.577478 30.519084-2.849908 43.800575-28.302603 44.841278-44.597731 1.566682-25.044396-15.683191-54.100152-52.136428-54.100152-0.144286 0-352.000959-1.017166-352.000959-1.017166-35.519981 0-46.752814 26.003234-22.780843 51.369971 19.798928 20.97573 189.707666 183.007057 217.035058 223.539192l332.866157 0 0 22.922059 0 0C887.918183 326.619264 887.918183 326.619264 887.918183 326.619264z"  horiz-adv-x="1024" />

    
    <glyph glyph-name="iconfonttaobao" unicode="&#58884;" d="M210.479173 643.846232c45.845996 0 82.960786-33.431414 82.960786-74.43427 0-40.934295-37.115813-74.330916-82.960786-74.330916-45.827576 0-82.943389 33.396621-82.943389 74.330916C127.535784 610.413795 164.651597 643.846232 210.479173 643.846232zM279.731187 196.996045c-21.920117-67.831898-16.457485-42.662659-103.376581-231.498468L50.419339 44.010745c0 0 140.421783 127.781268 169.326251 186.139397 30.458934 61.572334-33.727508 94.417393-33.727508 94.417393l-96.444421 60.157101 52.08535 80.277348c72.762099-54.002938 78.223707-58.533115 127.318834-107.729583C306.905173 319.209504 302.169118 266.313783 279.731187 196.996045zM964.122878 108.903707c-24.549098-230.321666-324.201803-144.753825-324.201803-144.753825l16.249745 65.929572 58.11901-14.936177c128.373906-8.15882 104.588225 104.029308 104.588225 104.029308L818.878055 445.225569c0 123.769908-105.141857 136.596028-315.973061 61.194734l54.729681-6.257517c-4.252011-14.486946-14.623645-54.797024-34.867517-54.797024l260.706122 0 0-70.804602L641.858272 374.56116l0-70.804602 141.616031 0 0-35.402301L641.858272 268.354256l0-142.16179c0 7.951089 47.885529 18.599613 67.038512 32.843012l-12.963774 52.203966 75.267255 23.199375 62.300411-152.258753-91.757486-38.168298-16.250768 60.675918c-40.969742-31.426757-126.332326-76.821643-275.122027-72.808236C291.261251 27.796458 332.075444 221.058067 332.075444 221.058067l4.062692 11.892865 111.81204 0c-0.725554-35.402301-10.38903-71.910796 2.870491-92.829222 10.751295-17.181311 32.066614-24.994254 49.906641-25.823132 2.005762-0.277316-0.485067-5.187139-0.485067-5.255701L500.242242 268.353233 323.224506 268.353233l0 35.402301 177.017736 0 0 70.804602-28.281249 0c-36.509991-35.402301-69.787226-70.90898-69.787226-70.90898l-48.955951 42.766013c34.764159 36.577057 69.579486 94.418416 90.981789 133.173069-17.477763-7.121188-35.421149-14.69263-53.900769-22.852474-18.255507-22.853497-38.912813-46.431495-62.026153-69.596078 0.813562-1.242294-80.020707 45.291532-80.020707 45.291532 83.548188 71.390957 130.396042 224.202295 130.396042 224.202295l116.341379-32.498158c0 0-9.766835-22.644743-29.474473-57.252958 465.418728 131.756813 492.384975-80.796164 492.384975-80.796164S988.566571 339.260166 964.122878 108.903707z"  horiz-adv-x="1024" />

    
    <glyph glyph-name="cesuo" unicode="&#59038;" d="M285.866667 150.666667l0-245.333333c0-8.533333-2.133333-17.066667-8.533333-23.466667-6.4-6.4-12.8-8.533333-23.466667-8.533333-8.533333 0-17.066667 2.133333-23.466667 8.533333-6.4 6.4-10.666667 12.8-10.666667 23.466667L219.733333 150.666667 128 150.666667 224 470.666667 206.933333 470.666667c-10.666667-36.266667-19.2-66.133333-25.6-87.466667-6.4-23.466667-12.8-44.8-19.2-66.133333-6.4-21.333333-10.666667-34.133333-12.8-38.4-4.266667-12.8-12.8-19.2-27.733333-19.2l-6.4 2.133333c-12.8 4.266667-19.2 12.8-19.2 25.6 0 4.266667 0 6.4 2.133333 8.533333 0 2.133333 4.266667 10.666667 6.4 23.466667 4.266667 12.8 8.533333 29.866667 14.933333 51.2 6.4 19.2 12.8 42.666667 19.2 64 6.4 23.466667 12.8 44.8 21.333333 68.266667 4.266667 17.066667 14.933333 32 29.866667 44.8 14.933333 12.8 32 19.2 49.066667 19.2l113.066667 0c17.066667 0 34.133333-6.4 49.066667-19.2 14.933333-12.8 25.6-27.733333 32-44.8 6.4-21.333333 12.8-44.8 19.2-68.266667 6.4-23.466667 12.8-44.8 19.2-64 6.4-19.2 10.666667-36.266667 14.933333-51.2 4.266667-12.8 6.4-21.333333 6.4-23.466667l2.133333-6.4c0-14.933333-6.4-23.466667-19.2-27.733333l-6.4-2.133333c-14.933333 0-23.466667 6.4-27.733333 19.2 0 4.266667-4.266667 17.066667-10.666667 38.4-6.4 21.333333-12.8 42.666667-19.2 66.133333-6.4 23.466667-14.933333 51.2-25.6 87.466667l-17.066667 0L458.666667 150.666667l-89.6 0 0-245.333333c0-8.533333-2.133333-17.066667-10.666667-23.466667-6.4-6.4-14.933333-8.533333-23.466667-8.533333-10.666667 0-17.066667 2.133333-23.466667 8.533333-6.4 6.4-8.533333 12.8-8.533333 23.466667L302.933333 150.666667 285.866667 150.666667zM296.533333 585.866667c19.2 0 36.266667 6.4 49.066667 19.2 12.8 12.8 19.2 29.866667 19.2 51.2 0 19.2-6.4 36.266667-19.2 49.066667-12.8 14.933333-29.866667 21.333333-49.066667 21.333333-21.333333 0-36.266667-6.4-51.2-21.333333-12.8-12.8-21.333333-29.866667-21.333333-49.066667 0-19.2 6.4-36.266667 21.333333-51.2C258.133333 592.266667 275.2 585.866667 296.533333 585.866667zM682.666667 568.8c-25.6 0-44.8-8.533333-64-25.6-17.066667-19.2-27.733333-40.533333-27.733333-64l0-219.733333c0-8.533333 2.133333-14.933333 8.533333-21.333333 6.4-6.4 12.8-8.533333 21.333333-8.533333 8.533333 0 17.066667 2.133333 23.466667 8.533333 4.266667 6.4 8.533333 12.8 8.533333 21.333333l0 196.266667 14.933333 0 0-544c0-10.666667 4.266667-19.2 12.8-27.733333 8.533333-8.533333 17.066667-10.666667 27.733333-10.666667 12.8 0 21.333333 4.266667 29.866667 10.666667 8.533333 8.533333 12.8 17.066667 12.8 27.733333L750.933333 227.466667l17.066667 0 0-315.733333c0-10.666667 4.266667-19.2 12.8-27.733333C789.333333-122.4 800-126.666667 810.666667-126.666667c10.666667 0 19.2 4.266667 27.733333 10.666667 8.533333 8.533333 10.666667 17.066667 10.666667 27.733333L849.066667 455.733333l17.066667 0 0-196.266667c0-8.533333 2.133333-14.933333 8.533333-21.333333 6.4-6.4 14.933333-8.533333 21.333333-8.533333 8.533333 0 17.066667 2.133333 21.333333 8.533333 4.266667 6.4 8.533333 12.8 8.533333 21.333333L925.866667 479.2c0 23.466667-8.533333 44.8-25.6 64-17.066667 17.066667-38.4 25.6-64 25.6L682.666667 568.8 682.666667 568.8zM759.466667 585.866667c19.2 0 36.266667 6.4 49.066667 19.2 12.8 12.8 21.333333 29.866667 21.333333 51.2 0 19.2-6.4 36.266667-21.333333 49.066667-12.8 14.933333-29.866667 21.333333-49.066667 21.333333-19.2 0-36.266667-6.4-49.066667-21.333333-12.8-12.8-19.2-29.866667-19.2-49.066667 0-19.2 6.4-36.266667 19.2-51.2C723.2 592.266667 740.266667 585.866667 759.466667 585.866667z"  horiz-adv-x="1024" />

    
    <glyph glyph-name="tengxunweibo" unicode="&#59207;" d="M825.6 748 198.4 748C121.6 748 64 690.4 64 613.6l0-627.2C64-90.4 121.6-148 198.4-148l627.2 0c76.8 0 134.4 57.6 134.4 134.4L960 613.6C960 690.4 902.4 748 825.6 748zM179.2 76c-6.4-57.6 0-121.6 0-121.6 0-6.4-6.4-19.2-19.2-19.2-12.8 0-19.2 12.8-19.2 12.8-12.8 96 0 198.4 32 288C204.8 312.8 256 370.4 275.2 389.6 268.8 402.4 268.8 408.8 268.8 421.6c0 38.4 32 76.8 76.8 76.8s76.8-32 76.8-76.8S384 344.8 339.2 344.8c-12.8 0-25.6 6.4-38.4 12.8-19.2-25.6-51.2-64-70.4-102.4C204.8 197.6 185.6 120.8 179.2 76zM339.2 191.2c-12.8 0-32 0-44.8 6.4-6.4 0-19.2 12.8-19.2 25.6 6.4 19.2 19.2 19.2 32 19.2 12.8 0 19.2 0 32 0C435.2 236 512 319.2 512 415.2c0 96-76.8 179.2-179.2 179.2-96 0-179.2-76.8-179.2-179.2 0-25.6 6.4-51.2 19.2-76.8 6.4-6.4 12.8-25.6-6.4-38.4C160 293.6 140.8 312.8 134.4 325.6 121.6 351.2 115.2 383.2 115.2 415.2c0 121.6 102.4 224 224 224s224-102.4 224-224S460.8 191.2 339.2 191.2zM742.4 453.6c-19.2 0-32 6.4-51.2 12.8-64 32-89.6 102.4-57.6 166.4 32 64 102.4 89.6 166.4 57.6s89.6-102.4 57.6-166.4c-6.4-6.4-6.4-12.8-12.8-19.2 0 0-12.8-6.4-19.2 0-6.4 6.4-6.4 12.8 0 19.2C825.6 524 832 530.4 832 536.8c25.6 51.2 0 108.8-44.8 128-51.2 25.6-108.8 0-128-44.8-25.6-51.2 0-108.8 44.8-128 12.8-6.4 25.6-6.4 38.4-6.4 6.4 0 12.8 0 19.2-12.8C761.6 460 748.8 453.6 742.4 453.6zM940.8 376.8c-6.4-6.4-12.8-6.4-12.8-6.4-51.2 12.8-96 44.8-134.4 83.2C768 492 748.8 524 742.4 543.2c-6.4 0-12.8 0-19.2 6.4C704 556 697.6 581.6 704 600.8 716.8 620 742.4 626.4 761.6 620c19.2-12.8 32-32 19.2-57.6C774.4 556 774.4 549.6 768 549.6c6.4-19.2 19.2-38.4 32-57.6 25.6-32 57.6-57.6 76.8-70.4 25.6-12.8 57.6-25.6 57.6-32C940.8 389.6 947.2 383.2 940.8 376.8z"  horiz-adv-x="1024" />

    
    <glyph glyph-name="fangdajing" unicode="&#58880;" d="M881.84-14.42l-222.973 222.976c43.774 50.933 70.413 116.978 70.413 189.245 0 160.431-130.516 290.946-290.948 290.946-160.43 0-290.945-130.516-290.945-290.946 0-160.43 130.516-290.947 290.945-290.947 63.529 0 122.158 20.69 170.062 55.37l225.043-225.048 48.403 48.403zM181.614 397.802c0 141.556 115.174 256.718 256.717 256.718 141.546 0 256.72-115.162 256.72-256.718 0-141.557-115.174-256.719-256.72-256.719-141.547 0-256.717 115.162-256.717 256.719z"  horiz-adv-x="1024" />

    
    <glyph glyph-name="duihao" unicode="&#58966;" d="M512 896C229.239467 896 0 666.760533 0 384s229.239467-512 512-512 512 229.239467 512 512S794.760533 896 512 896zM474.965333 110.933333C396.288 210.670933 303.7184 286.651733 238.933333 310.408533l152.746667 94.993067 74.0352-147.2512c0 0 120.354133 299.2128 310.101333 398.9504-4.608-71.236267-23.1424-132.949333 9.250133-208.964267C701.7472 429.124267 530.500267 215.415467 474.965333 110.933333z"  horiz-adv-x="1024" />

    
    <glyph glyph-name="diqiu" unicode="&#58886;" d="M1025.833023 384.439926C1025.833023 666.945439 796.338536 896 513.246456 896 230.154375 896 0.659888 666.945439 0.659888 384.439926 0.659888 123.417442 196.426751-91.926106 449.457253-123.23414 463.754833-126.240298 481.131892-128 501.808392-128 507.600745-128 513.246456-127.633395 518.598883-127.120149 799.271373-124.260633 1025.833023 103.694114 1025.833023 384.439926L1025.833023 384.439926ZM952.585422 377.181154C951.119003 402.696835 947.746241 427.69927 942.613776 451.968495 943.053702 460.620364 943.127023 468.905628 942.90706 476.531004 949.28598 446.83603 952.658743 416.041243 952.658743 384.439926 952.658743 382.020335 952.585422 379.600745 952.585422 377.181154L952.585422 377.181154ZM73.834169 384.439926C73.834169 415.454676 77.060289 445.662896 83.219247 474.917944 102.209366 454.608048 146.935128 455.121295 157.859946 485.402835 177.363311 473.744809 203.53888 471.618502 203.53888 448.449091 203.53888 371.828727 206.325075 289.635973 275.979951 288.389517 277.959616 288.389517 314.913361 274.385221 332.437061 228.926249 338.522698 213.162251 362.57196 228.926249 388.894172 228.926249 402.091938 228.926249 388.894172 206.783331 388.894172 158.904769 388.894172 111.246169 491.836746 37.851926 491.836746 37.851926 491.3235 6.250609 492.643277-19.265072 495.28283-39.648289 472.040097-39.208363 452.463411-42.287842 437.066017-47.493627 230.740942-11.493055 73.834169 168.143205 73.834169 384.439926L73.834169 384.439926ZM621.394816-40.674782C619.121867-29.530001 609.150222-23.444365 590.966633-28.210225 605.484176 33.525992 612.522984 68.060146 642.877846 94.309036 686.650437 132.215953 648.083632 174.448804 614.722612 169.462982 588.400401 165.503652 605.04425 201.94415 581.581555 203.997136 558.11886 205.90348 527.470715 252.535586 493.74309 268.592868 475.852785 277.024774 458.255764 299.827581 430.613776 300.780753 406.197909 301.733925 370.417299 280.177574 370.417299 296.821423 370.417299 350.419018 364.991551 388.76586 363.891737 404.016612 363.011886 416.334527 355.826436 408.122583 388.894172 407.389374 406.931118 406.876128 398.132608 443.463268 415.949592 444.929686 433.399971 446.249463 475.119576 428.5058 485.75111 435.617929 495.576113 442.216812 558.265502 271.305743 558.265502 407.389374 558.265502 423.519977 549.906917 451.60189 558.265502 466.852642 591.406559 527.269082 622.347988 576.540742 619.561793 583.726192 618.022054 587.758843 585.687527 591.131605 559.878562 582.479737 551.153372 579.5469 562.664757 565.909208 550.12688 562.976371 503.201489 552.198196 461.775168 575.660891 476.292711 597.657167 491.176858 620.240011 544.994415 607.555492 549.686954 652.867822 552.473149 678.823428 554.672777 708.885006 556.212516 731.247888 619.34183 721.349563 612.376343 813.074037 518.525562 822.899041 708.426751 820.699413 869.439496 698.180152 928.462838 528.148933 925.530001 530.861807 922.010597 532.474868 918.051267 532.914793 889.60275 603.742804 820.754404 552.491479 844.070457 490.022054 718.838322 393.825004 750.879565 326.809681 792.085923 288.389517 813.715595 268.226264 834.392095 237.871402 847.809824 216.021767 833.145639 173.422311 901.700702 190.506086 935.501647 262.800516 892.535586 113.885722 772.582558-2.474581 621.394816-40.674782L621.394816-40.674782Z"  horiz-adv-x="1027" />

    
    <glyph glyph-name="iconfontdian" unicode="&#58970;" d="M895.576241 504.546835c-2.991237 6.082181-12.363778 20.340409-35.595716 22.135151-0.697955 0.099708-1.39591 0.099708-2.193574 0.099708l-239.199221 1.495618 61.519766 305.903797c0.199416 0.797663 0.299124 1.695034 0.398832 2.592405 2.193574 19.143914-1.695034 34.299513-11.466407 45.167673-8.176047 9.073418-19.84187 14.058812-32.803895 14.058812-14.856475 0-27.8185-6.580721-31.407984-8.574878-3.190652-1.794742-6.082181-4.187731-8.47517-6.979552L136.300682 335.841091c-0.697955-0.797663-1.39591-1.695034-1.994158-2.692113-7.07926-10.469328-11.665823-27.220253-3.390068-42.575268 4.287439-7.876923 15.255307-21.038364 40.880234-21.038364 1.196495 0 2.492697 0 3.888608 0.099708l211.779552 0.199416L269.111587-72.562415c-0.697955-1.994158-1.196495-3.988315-1.39591-6.082181-0.598247-4.885686-1.695034-21.636611 10.569036-35.3963 8.076339-8.97371 19.542746-13.959104 32.604479-13.959104 7.976631 0 16.352093 1.794742 25.724635 5.483934 4.187731 1.695034 7.976631 4.187731 10.967868 7.478092l539.918208 571.326193c1.096787 1.196495 2.193574 2.492697 3.090944 3.888608C894.280039 465.660759 905.347614 484.704966 895.576241 504.546835z"  horiz-adv-x="1024" />

    
    <glyph glyph-name="zhongguodianxin" unicode="&#58962;" d="M901.192 652.151249c-17.08819 69.424162-106.265232 111.089098-226.157833 116.722398l11.392468-43.180452c43.200918-10.090822 72.594365-29.435403 79.425957-57.021691 15.267728-62.635549-91.087555-143.638421-237.501182-180.866301-9.43386-2.415003-18.908652-4.51278-28.161387-6.491855 4.007267 33.130561 9.79304 62.794162 17.226337 87.148849 16.132422 51.831482 38.820144 86.256526 66.621327 86.256526 10.983145 0 21.461801-5.301749 31.213909-15.309684l32.486902 8.748245C615.56882 718.51675 571.5994 762.01545 522.384511 762.01545c-82.615603 0-151.881153-123.969453-170.657798-290.842041-63.382563 5.945409-108.175745 27.912723-116.791983 62.884213-11.889795 48.460712 49.492204 107.953687 145.458883 149.486616l-8.249895 32.694633c-164.456562-63.956637-271.538393-171.156148-249.259994-261.081227C139.742694 386.052752 228.462319 344.5188 347.718423 338.733027c9.522887-190.798511 84.207867-339.606675 174.665065-339.606675 82.705654 0 152.10321 123.609249 170.830737 290.710035l-57.734936-15.385409c-11.4334-89.086991-37.407981-151.058414-67.347874-151.058414-37.733393 0-68.629054 98.112552-73.182766 224.973868 21.143553 3.668553 42.515303 7.834432 64.206324 13.323447C773.783215 416.130791 927.07653 546.336272 901.192 652.151249z"  horiz-adv-x="1024" />

    
    <glyph glyph-name="icon" unicode="&#58977;" d="M511.999488 689.968553c168.966273 0 305.968553-137.00228 305.968553-305.968553 0-168.967296-137.00228-305.968553-305.968553-305.968553-168.967296 0-305.968553 137.001257-305.968553 305.968553C206.030935 552.966273 343.033215 689.968553 511.999488 689.968553z"  horiz-adv-x="1024" />

    
    <glyph glyph-name="iconfonthuilvhuansuan" unicode="&#58893;" d="M827.055001 361.721601 586.789868 361.721601l0-108.85522 115.907846 0 0 21.809725c0 50.760081 21.791305 45.551452 54.42761 16.433274l121.249505-94.957699c10.399861-8.398274 12.973476-20.024056 12.973476-24.317848s-2.573615-14.624069-12.973476-22.411429l-121.249505-88.064708c-32.636305-27.010167-54.42761-35.276435-54.42761 15.238053l0 22.057365L586.789868 98.653113l0-95.872534c0-37.081547-34.700313-67.415412-77.107145-67.415412-42.412972 0-77.106122 30.333866-77.106122 67.415412l0 95.872534-231.195569 0c-37.486776 0-68.160379 34.69929-68.160379 77.107145s30.673603 77.107145 68.160379 77.107145l231.195569 0L432.576601 361.721601 316.960397 361.721601c-0.098237 0.054235-0.200568 0.13303-0.296759 0.187265l0-21.99699c0-50.760081-21.792329-45.551452-54.423517-16.432251l-121.250528 94.955652c-10.395768 8.394181-12.772908 17.3389-12.772908 24.190959s2.378164 14.756075 12.772908 22.539342l121.250528 88.068801c32.631188 27.007097 54.423517 35.270295 54.423517-15.241123l0-22.071691c0.096191 0 0.198521 0.013303 0.296759 0.013303l105.661482 0L233.572198 714.916758c-27.780717 29.770024-25.521257 75.449389 5.0142 101.521185 30.540573 26.065655 78.257342 23.044856 106.039082-6.720052l165.057243-176.842661L674.73792 809.717891c27.779693 29.763884 75.502601 32.785707 106.039082 6.720052 30.535457-26.071795 32.794917-71.752184 5.0142-101.521185l-189.05582-198.980867 230.318596 0c37.490869 0 68.159356-34.695197 68.159356-77.107145C895.214357 396.422937 864.544847 361.721601 827.055001 361.721601z"  horiz-adv-x="1024" />

    
    <glyph glyph-name="fangzi" unicode="&#59185;" d="M676.044011 417.254066c0 47.921035-43.302516 86.907094-96.52775 86.907094-21.920596 0-42.877617-6.616152-59.88166-18.774123-17.01814 12.156965-37.966098 18.774123-59.850447 18.774123-53.240337 0-96.554936-38.987066-96.554936-86.907094 0-2.089258 0.123845-4.491653 0.366501-7.141739 0.090618-0.992775 0.183251-1.836533 0.252725-2.432601 0.026179-0.223525 0.056385-0.44101 0.089612-0.65346l0.005034-0.038261c-0.001007 0.008055-0.002014 0.01611-0.003021 0.024165 5.42905-43.528056 43.469657-90.041485 74.426924-121.396466 15.502798-15.703166 32.654852-30.981432 48.293578-43.020592 24.223311-18.647258 30.134653-18.647258 32.975037-18.647258 2.845418 0 8.765822 0 33.013298 18.668402 15.655843 12.05225 32.821992 27.347633 48.335866 43.067915 30.980425 31.391228 69.034121 77.95198 74.387656 121.502187l-0.003021 0C675.539569 408.589938 676.044011 413.113811 676.044011 417.254066zM519.638629 258.545969c-29.869846 19.498064-115.794233 97.603089-122.489928 152.462474l-0.042289 0.310116c-0.004027 0.027186-0.414831 2.775944-0.414831 5.935507 0 30.296759 28.303154 54.943963 63.091566 54.943963 16.523766 0 32.18867-5.595184 44.090897-15.738406l15.762571-13.503152 15.738406 13.487042c11.921357 10.160339 27.597337 15.755523 44.139227 15.755523 34.786398 0 63.087539-24.647204 63.087539-54.948997 0.002014-3.218968-0.407783-5.96974-0.40879-5.976788l-0.044302-0.318171C635.40769 356.071528 549.497399 278.020874 519.638629 258.545969zM94.618092 449.486032c-17.927344-17.927344-46.993707-17.927344-64.918031 0l0 0c-17.927344 17.926338-17.927344 46.993707 0 64.920044L486.846842 882.554492c17.924324 17.927344 46.996727 17.927344 64.918031 0l0 0c17.929358-17.926338 17.929358-46.9927 0-64.920044L94.618092 449.486032zM1009.574175 514.406076c17.92231-17.926338 17.92231-46.993707 0-64.920044l0 0c-17.933386-17.927344-46.996727-17.927344-64.924072 0L487.502315 817.634447c-17.927344 17.927344-17.927344 46.9927 0 64.920044l0 0c17.926338 17.927344 46.993707 17.927344 64.920044 0L1009.574175 514.406076zM262.042675 75.430303c0-25.35-20.557292-45.905279-45.905279-45.905279l0 0c-25.353021 0-45.907293 20.555279-45.907293 45.905279L170.230103 413.986769c0 25.35 20.554272 45.905279 45.907293 45.905279l0 0c25.347986 0 45.905279-20.555279 45.905279-45.905279L262.042675 75.430303zM828.931385 121.336588c25.353021 0 45.905279-20.552258 45.905279-45.906286l0 0c0-25.351007-20.552258-45.906286-45.905279-45.906286L216.137396 29.524017c-25.353021 0-45.907293 20.555279-45.907293 45.906286l0 0c0 25.354028 20.554272 45.906286 45.907293 45.906286L828.931385 121.336588zM876.031821 75.430303c0-25.35-20.554272-45.905279-45.906286-45.905279l0 0c-25.355034 0-45.906286 20.555279-45.906286 45.905279L784.219249 413.986769c0 25.35 20.551251 45.905279 45.906286 45.905279l0 0c25.352014 0 45.906286-20.555279 45.906286-45.905279L876.031821 75.430303z"  horiz-adv-x="1024" />

    
    <glyph glyph-name="xinxi1" unicode="&#58979;" d="M512 372.329193l443.654402 281.20659c0 8.55177-10.609639 13.456477-44.286646 13.456477L112.632243 666.992259c-30.331819 0-44.287669 0.060375-44.287669-13.456477L512 372.329193zM953.400059 145.951349c2.844791 7.546883 4.412496 15.705704 4.412496 24.216541L957.812555 593.637578c0 1.345648-0.049119 2.679016-0.125867 4.006244L678.603459 420.747949 953.400059 145.951349zM620.896152 404.403702l-91.048669-57.710376c-5.517667-3.497661-11.749602-5.003967-17.847483-4.726651-6.097882-0.277316-12.329816 1.230014-17.847483 4.726651l-91.048669 57.710376L119.241778 120.542656c12.464893-12.068873 29.40982-19.533892 48.02376-19.533892l689.466877 0c18.61394 0 35.558867 7.465019 48.02376 19.533892L620.896152 404.403702zM345.396541 420.747949 66.312288 597.642798c-0.076748-1.327228-0.125867-2.660596-0.125867-4.006244l0-423.468664c0-8.510838 1.567705-16.669658 4.412496-24.216541L345.396541 420.747949z"  horiz-adv-x="1024" />

    
    <glyph glyph-name="fangzi1" unicode="&#58902;" d="M1013.4 355.4l-468 468c-18.2 18.2-48.2 18.2-66.6 0l-468-468c-8.8-8.8-11-22-6.6-33 2.4-6 8.6-10 15.2-10l97.6 0c9.2 0 16.8-7.6 16.8-16.8l0-308.4c0-31 25.4-56.4 56.4-56.4l187.2 0L377.4 296.6l269.6 0 0-365.6 187.2 0c31 0 56.4 25.4 56.4 56.4L890.6 295.8c0 9.2 7.6 16.8 16.8 16.8l97.6 0c6.6 0 12.8 3.8 15.2 10C1024.4 333.4 1022.2 346.4 1013.4 355.4z"  horiz-adv-x="1024" />

    
    <glyph glyph-name="phone" unicode="&#58994;" d="M511.176 832.943c-248.402 0-449.735-201.353-449.735-449.735 0-248.387 201.332-449.74 449.735-449.74 248.367 0 449.739 201.353 449.739 449.74 0 248.382-201.372 449.735-449.739 449.735v0zM511.176-29.048c-227.685 0-412.257 184.565-412.257 412.256 0 227.689 184.574 412.255 412.257 412.255 227.688 0 412.26-184.567 412.26-412.255-0-227.691-184.573-412.256-412.26-412.256v0zM669.001 97.916h-0.011l-2.844 0.063c-66.14 3.384-155.465 65.637-238.962 166.533l-30.84 37.253c-83.501 100.902-127.245 199.452-117.016 263.621 7.221 45.271 74.528 83.477 112.986 83.477 18.943 0 25.808-9.428 28.205-15.055 21.772-38.693 48.712-105.978 48.835-130.109l0.009-1.719-0.617-1.604c-4.801-12.685-15.544-18.76-25.025-24.122-12.486-7.057-19.584-11.689-20.45-25.028-0.258-4.050 3.234-22.466 58.322-90.373l23.55-28.436c55.241-65.191 72.623-72.211 76.692-72.792 13.317-1.851 19.592 3.988 29.172 14.49 7.292 7.996 15.566 17.073 29.221 19.074l1.727 0.246 1.701-0.363c24.056-5.073 85.632-44.753 120.589-74.217 5.045-3.347 13.854-13.295 6.879-35.264-10.942-34.504-58.637-85.675-102.124-85.675v0 0zM669.001 97.916z"  horiz-adv-x="1024" />

    
    <glyph glyph-name="shouye" unicode="&#58972;" d="M432.109973 768.376321C326.107731 654.883477 194.959785 530.325623 88.686367 416.55137c-54.956659-59.59633-1.379417-98.414427 20.754696-98.414427l100.821243 0 0-284.882306c0-35.610032 26.883277-75.553767 65.23577-75.553767l148.265812 0-1.12973 258.635525L623.903138 216.336396l-0.87288-258.635525 148.262742 0c28.859281 0 65.236793 25.187659 65.236793 96.388281L836.529793 318.131827l78.787414 0c37.956474 0 59.977 42.846854 30.029944 82.454944C847.202876 511.184681 718.828091 645.859963 612.967064 765.187699 545.491277 829.005166 483.847312 820.544471 432.109973 768.376321L432.109973 768.376321zM432.109973 768.376321"  horiz-adv-x="1024" />

    
    <glyph glyph-name="zan" unicode="&#58956;" d="M646.050 831.927c63.722 0 89.551-42.44 89.551-111.927-2.711-83.625-25.216-166.87-60.721-242.48 49.877-4.809 100.191-3.702 150.241-3.76 84.391 0 134.326-34.977 134.326-100.732 0.641-26.67-13.994-48.561-34.95-63.921l0.64-0.905c18.189-41.272 16.82-81.789-23.028-111.023l0.643-0.904c18.189-41.243 16.82-81.789-23.002-111.024l0.613-0.904c12.594-34.978 9.795-19.033 11.923-47.102 0-61.123-45.271-100.734-111.909-100.734l-134.325 0c-74.014 0-158.521 7.054-233.321 18.246-19.299 3.178-38.595 6.12-57.718 10.232v-6.093c0-12.357-10.028-22.385-22.388-22.385l-246.264-0c-12.358 0-22.387 10.027-22.387 22.385l0 537.248c0 12.358 10.028 22.386 22.387 22.386h246.264c12.359 0 22.388-10.027 22.388-22.386v-3.848c49.089 29.614 85.003 76.541 120.886 120.234 9.387 12.534 18.337 26.262 27.256 41.623 12.593 21.743 54.482 107.351 65.122 124.373 21.047 33.693 44.019 53.398 77.774 53.398zM108.747 473.76v-492.477h201.487v492.477h-201.487zM646.050 787.155c-44.777 0-67.164-111.926-134.326-201.468-41.394-56.809-91.299-105.134-150.299-143.523l-6.413-2.973v-427.623c95.089-23.347 193.589-26.67 291.039-30.285 0 0 89.551 0 134.325 0 44.746 0 67.134 22.385 67.134 55.964 0 33.577-22.389 33.577-22.389 55.963 0 22.385 44.776 22.385 44.776 55.963 0 33.578-22.387 33.578-22.387 55.964 0 22.384 44.775 22.384 44.775 55.963 0 33.577-22.388 33.577-22.388 55.963 0 22.385 44.776 22.385 44.776 55.964 0 33.578-22.388 55.963-89.552 55.963-156.684 0-223.847 0-201.458 44.77 24.4 48.793 67.163 156.698 67.163 246.239-0 44.775-9.737 67.159-44.775 67.159z"  horiz-adv-x="1024" />

    
    <glyph glyph-name="yuzhuanhuan" unicode="&#58980;" d="M304.128 42.654897 351.585103 36.263724 384.776828 264.898207 337.319724 271.254069ZM416.097103-19.067586 463.554207-25.458759 496.745931 203.175724 449.288828 209.566897ZM541.342897 10.663724 588.8 4.272552 621.991724 232.871724 574.534621 239.298207ZM653.312-51.058759 700.769103-57.449931 733.960828 171.184552 686.503724 177.575724ZM881.416828 546.498207C867.716414 725.874759 715.670069 867.328 529.655172 867.328S191.593931 725.874759 177.893517 546.498207c-91.948138-31.390897-158.049103-117.124414-158.049103-218.217931 0-125.422345 101.623172-227.29269 228.281379-230.823724L248.125793 173.903448c-83.332414 3.566345-149.927724 70.761931-149.927724 153.811862 0 59.074207 34.039172 109.815172 83.473655 135.803586 21.927724 11.546483 46.609655 18.679172 73.233655 18.679172 1.05931 0 2.048-0.282483 3.10731-0.317793-1.836138 12.570483-3.10731 25.317517-3.10731 38.382345 0 13.27669 1.306483 26.235586 3.177931 39.017931C277.398069 689.752276 391.450483 790.068966 529.655172 790.068966s252.257103-100.31669 271.571862-230.788414c1.906759-12.782345 3.177931-25.741241 3.177931-39.017931 0-13.064828-1.271172-25.811862-3.10731-38.382345 1.05931 0.03531 2.048 0.317793 3.10731 0.317793 26.58869 0 51.270621-7.168 73.198345-18.679172 49.434483-25.988414 83.473655-76.694069 83.473655-135.803586 0-85.309793-70.161655-154.482759-156.70731-154.482759-3.389793 0-6.603034 0.741517-9.922207 0.953379l0-76.517517c3.319172-0.141241 6.567724-0.564966 9.922207-0.564966 129.800828 0 235.025655 103.494621 235.025655 231.176828C1039.465931 429.373793 973.329655 515.10731 881.416828 546.498207z"  horiz-adv-x="1060" />

    
    <glyph glyph-name="tubiaosandianpaopao" unicode="&#58964;" d="M0 840.128l0-672.112 175.968 0 0-240.144 260 240.144L1024 168.016 1024 840.128 0 840.128zM261.568 444.496c-35.264 0-63.968 28.656-63.968 63.904s28.704 63.92 63.968 63.92 63.968-28.656 63.968-63.92S296.816 444.496 261.568 444.496zM512 444.496c-35.264 0-63.968 28.656-63.968 63.904S476.736 572.32 512 572.32c35.248 0 63.968-28.656 63.968-63.92S547.248 444.496 512 444.496zM762.432 444.496c-35.264 0-63.968 28.656-63.968 63.904s28.704 63.92 63.968 63.92c35.248 0 63.952-28.656 63.952-63.92S797.68 444.496 762.432 444.496z"  horiz-adv-x="1024" />

    
    <glyph glyph-name="hongbao" unicode="&#58975;" d="M509.91104-111.16544C236.96384-111.34976 15.28832 110.04928 14.78656 383.35488 14.27456 656.44544 236.8 879.03232 510.02368 878.72512c273.17248-0.3072 494.80704-222.1056 494.6432-495.0016C1004.51328 110.56128 783.03232-110.97088 509.91104-111.16544zM50.00192 383.52896c0.6144-253.97248 207.3088-460.31872 460.22656-459.4688 254.07488 0.84992 460.3392 207.67744 459.23328 460.46208C968.33536 638.38208 762.84928 843.54048 509.71648 843.50976 256.24576 843.47904 49.38752 636.50816 50.00192 383.52896zM774.72768 383.71328c0-70.8608 0.256-141.73184-0.09216-212.59264-0.21504-42.60864-29.06112-77.32224-70.76864-85.92384-7.49568-1.54624-15.36-1.73056-23.05024-1.7408-108.22656-0.1024-216.45312-0.14336-324.67968-0.04096-56.832 0.0512-93.8496 37.07904-93.87008 93.6448-0.03072 137.86112-0.03072 275.72224 0 413.58336 0.01024 56.05376 37.03808 93.40928 93.07136 93.4912 108.87168 0.1536 217.74336 0.16384 326.61504 0 56.05376-0.08192 92.76416-37.31456 92.80512-93.62432 0.0512-68.93568 0.01024-137.86112 0.01024-206.7968C774.74816 383.71328 774.73792 383.71328 774.72768 383.71328zM737.09568 615.05536c-5.02784-2.90816-8.07936-4.61824-11.06944-6.42048C656.25088 566.6816 586.42432 524.8 516.79232 482.6112c-5.86752-3.55328-9.74848-3.1744-15.22688 0.58368-62.89408 43.18208-125.96224 86.10816-188.99968 129.08544-3.0208 2.05824-6.17472 3.9424-11.28448 7.18848-1.4848-10.24-3.67616-18.3808-3.6864-26.5216-0.21504-139.47904-0.23552-278.94784-0.09216-418.42688 0.03072-33.32096 22.69184-55.72608 55.93088-55.74656 110.16192-0.08192 220.32384-0.08192 330.48576 0 33.09568 0.03072 55.67488 22.69184 55.69536 55.98208 0.08192 139.47904 0.07168 278.94784-0.06144 418.42688C739.5328 599.79776 738.0992 606.40256 737.09568 615.05536zM330.69056 645.91872c-0.13312-0.83968-0.256-1.67936-0.38912-2.51904 1.2288-0.96256 2.41664-1.9968 3.69664-2.8672 56.86272-38.8096 113.79712-77.52704 170.51648-116.56192 5.10976-3.51232 8.37632-2.29376 12.83072 0.39936 62.5152 37.70368 125.10208 75.28448 187.66848 112.91648 2.16064 1.30048 4.15744 2.85696 6.23616 4.29056 0.0512 0.86016 0.1024 1.72032 0.1536 2.58048-8.62208 1.55648-17.23392 4.43392-25.856 4.46464-111.39072 0.3072-222.7712 0.256-334.16192 0.07168C344.48384 648.67328 337.59232 646.88128 330.69056 645.91872zM407.32672 441.01632c15.64672 0 28.80512 0.38912 41.90208-0.3072 2.82624-0.1536 6.48192-3.64544 7.9872-6.52288 15.77984-30.22848 31.19104-60.65152 46.71488-91.01312 1.45408-2.85696 2.99008-5.67296 5.30432-10.06592 2.16064 3.76832 3.8912 6.51264 5.36576 9.39008 15.24736 29.77792 30.70976 59.45344 45.49632 89.45664 3.5328 7.168 7.80288 9.6768 15.5648 9.23648 11.17184-0.63488 22.40512-0.16384 35.8912-0.16384-23.16288-41.80992-45.44512-82.04288-68.68992-124.0064 16.31232 0 30.8736 0 46.03904 0 0-7.84384 0-14.41792 0-21.92384-19.39456 0-38.59456 0-58.35776 0 0-10.72128 0-20.52096 0-30.976 19.57888 0 38.51264 0 58.20416 0 0-7.18848 0-13.74208 0-21.31968-18.98496 0-38.17472 0-58.38848 0 0-18.23744 0-35.50208 0-53.52448-14.03904 0-27.06432 0-41.4208 0 0 17.17248 0 34.65216 0 53.01248-20.1728 0-39.04512 0-58.61376 0 0 7.43424 0 13.98784 0 21.4016 18.98496 0 37.86752 0 57.58976 0 0 10.5472 0 20.2752 0 31.13984-19.05664 0-38.1952 0-57.81504 0 0 7.45472 0 13.80352 0 21.39136 14.592 0 29.19424 0 46.336 0C453.04832 358.48192 430.7456 398.72512 407.32672 441.01632z"  horiz-adv-x="1024" />

    
    <glyph glyph-name="weibo" unicode="&#58881;" d="M544.060-63.267h-64.949c-228.634 0-415.697 187.064-415.697 415.697v64.949c0 228.634 187.064 415.697 415.697 415.697h64.949c228.634 0 415.697-187.064 415.697-415.697v-64.949c-0.001-228.634-187.065-415.697-415.697-415.697zM466.546 207.214c-91.162-9.191-169.926 32.733-175.862 93.516-5.911 60.858 63.237 117.533 154.373 126.724 91.212 9.191 169.951-32.733 175.811-93.516 6.010-60.858-63.161-117.609-154.273-126.724M648.919 409.147c-7.764 2.404-13.099 3.932-9.067 14.275 8.816 22.49 9.767 41.874 0.151 55.774-17.857 25.946-66.793 24.544-122.893 0.701 0 0-17.656-7.814-13.099 6.336 8.59 28.175 7.262 51.716-6.086 65.366-30.404 31.005-111.348-1.127-180.72-71.627-51.892-52.743-82.071-108.767-82.071-157.153 0-92.514 116.807-148.814 231.059-148.814 149.766 0 249.442 88.406 249.442 158.606 0.075 42.45-35.112 66.543-66.743 76.511M748.396 578.496c-34.566 39.257-87.675 56.726-138.796 45.656-11.451-2.604-18.669-13.944-16.178-25.42 2.273-11.394 13.351-18.788 24.746-16.516 0.099 0.019 0.2 0.041 0.299 0.061 35.012 7.588 72.929-3.456 98.625-32.433 24.863-28.122 33.093-67.253 21.663-103.008-3.606-11.27 2.504-23.291 13.574-26.948 11.057-3.567 22.913 2.505 26.48 13.562 0.023 0.071 0.045 0.141 0.067 0.212v0.050c16.073 50.255 4.482 105.261-30.504 144.757M692.847 527.531c-16.829 19.108-42.693 27.592-67.569 22.164-9.89-2.243-16.14-12.020-14.025-21.939 2.154-9.917 11.821-16.279 21.538-14.1 11.696 2.555 24.469-1.152 33.058-10.819 8.59-9.718 10.944-22.916 7.262-34.511-3.082-9.632 2.104-19.961 11.67-23.241 9.533-3.067 19.747 2.175 22.814 11.708 0.017 0.054 0.035 0.109 0.051 0.163 7.513 23.717 2.83 50.74-14.776 70.575M471.556 317.358c-3.156-5.585-10.218-8.215-15.703-5.885-5.459 2.254-7.138 8.515-4.007 13.899 3.18 5.385 9.943 8.014 15.328 5.861 5.51-2.004 7.463-8.265 4.408-13.899M442.528 279.466c-8.84-14.275-27.8-20.536-41.974-13.975-14.025 6.512-18.182 23.091-9.367 37.066 8.765 13.899 26.998 20.086 41.123 14.025 14.275-6.261 18.858-22.665 10.193-37.116M475.612 380.646c-43.401 11.521-92.414-10.518-111.272-49.337-19.284-39.645-0.627-83.648 43.152-98.024 45.455-14.902 98.926 7.964 117.583 50.665 18.383 41.824-4.558 84.901-49.487 96.671z"  horiz-adv-x="1024" />

    
    <glyph glyph-name="feiji" unicode="&#59015;" d="M998.048158 866.089713c-0.624801 0.645354-1.457185 1.060518-2.207357 1.792193-0.624801 0.624801-1.083126 1.49829-1.666822 2.125147C975.006555 889.486878 949.215003 897.736722 924.130464 895.695841c-18.916682-0.709067-37.331878-7.250984-51.626264-21.730343l-80.500716-80.480163-139.291642-138.689449L112.875289 721.442044l-73.126416-72.187159 399.334358-203.625624-175.832242-175.230049L36.583761 285.357448 0 249.209404l17.500602-10.582572-7.415405-7.625042 193.168424-105.50099 31.166076-19.062606 19.124264-31.209236 105.542094-193.273242 7.583937 7.520223 10.541467-17.477994 36.125437 36.583761-14.999342 226.626122 175.334867 175.813745 203.584519-399.315861 72.207712 73.103809-66.666711 539.816 138.707946 139.293697L1002.045653 744.42199c14.458807 14.333435 21.041828 32.666421 21.66663 51.708474 2.042936 25.041379-6.165802 50.83293-25.664125 69.959249z"  horiz-adv-x="1024" />

    
    <glyph glyph-name="iconfontbiaozhunmoban01" unicode="&#58917;" d="M685.425 740.709l-39.476 9.712-125.353-509.494c-82.656 65.398-205.016 34.173-243.861-45.712-12.666-25.993-6.017-57.956 0.203-75.088 33.174-91.365 153.169-84.049 233.444-13.191 33.023 29.149 43.258 60.231 62.442 138.206l77.851 316.423c47.18-10.099 113.476-86.864 118.414-142.888 3.104-35.539-7.521-79.317-31.753-105.943-6.149-6.729-24.79-29.283-15.447-27.576 17.396 3.178 25.749 9.744 43.582 26.341 16.189 15.068 31.668 39.888 38.124 56.249 68.914 175.029-135.807 231.792-118.169 372.963zM512-85.674c-63.399 0-124.91 12.421-182.825 36.916-55.93 23.656-106.158 57.519-149.287 100.648-43.129 43.128-76.993 93.356-100.649 149.287-24.496 57.914-36.916 119.424-36.916 182.825 0 63.399 12.42 124.91 36.916 182.823 23.657 55.931 57.52 106.158 100.649 149.287 43.129 43.129 93.356 76.993 149.287 100.649 57.914 24.496 119.425 36.916 182.825 36.916s124.909-12.42 182.823-36.916c55.931-23.657 106.158-57.52 149.287-100.649 43.129-43.128 76.993-93.356 100.648-149.287 24.496-57.913 36.916-119.424 36.916-182.823 0-63.401-12.421-124.91-36.916-182.825-23.656-55.93-57.519-106.158-100.648-149.287-43.128-43.129-93.355-76.993-149.287-100.648-57.914-24.495-119.424-36.916-182.823-36.916zM512 822.976c-59.268 0-116.755-11.604-170.865-34.491-52.271-22.109-99.218-53.762-139.538-94.082s-71.973-87.268-94.083-139.538c-22.886-54.108-34.491-111.596-34.491-170.865s11.604-116.755 34.491-170.865c22.109-52.271 53.763-99.219 94.083-139.538s87.267-71.974 139.538-94.082c54.109-22.886 111.597-34.491 170.865-34.491 59.268 0 116.755 11.604 170.865 34.491 52.271 22.109 99.219 53.762 139.538 94.082s71.974 87.267 94.082 139.538c22.886 54.109 34.491 111.597 34.491 170.865s-11.604 116.755-34.491 170.865c-22.109 52.271-53.762 99.219-94.082 139.538s-87.267 71.974-139.538 94.082c-54.109 22.886-111.597 34.491-170.865 34.491z"  horiz-adv-x="1024" />

    
    <glyph glyph-name="tuichu" unicode="&#59004;" d="M701.607 642.361v-187.752h-318.82v-141.41h318.819v-187.784L960 383.872 701.607 642.361z m-159.41-0.31V782.46H64v-796.92h478.197V126.822H205.41V642.051h336.787z"  horiz-adv-x="1024" />

    
    <glyph glyph-name="koubei1" unicode="&#58974;" d="M863.232 650.24c0 27.648-22.528 51.2-51.2 51.2H211.968c-28.672 0-51.2-22.528-51.2-51.2 0 0-7.168-159.744 0-211.968C172.032 354.304 256 199.68 404.48 144.384V97.28c0-16.384 13.312-30.72 30.72-30.72h3.072c83.968 0 293.888 34.816 402.432 283.648 9.216 22.528 20.48 60.416 23.552 88.064 6.144 53.248-1.024 211.968-1.024 211.968z m-30.72-207.872c-3.072-24.576-13.312-60.416-21.504-79.872C704.512 116.736 497.664 97.28 437.248 97.28h-2.048V166.912l-20.48 7.168c-140.288 52.224-215.04 200.704-223.232 269.312-5.12 40.96-2.048 162.816 0 206.848v1.024-1.024c0 11.264 9.216 20.48 20.48 20.48h600.064c11.264 0 20.48-9.216 20.48-20.48v-1.024c2.048-44.032 6.144-165.888 0-206.848zM687.104 370.688c-7.168 5.12-16.384 3.072-21.504-4.096-36.864-53.248-98.304-86.016-162.816-86.016-109.568 0-197.632 89.088-197.632 197.632 0 8.192-7.168 15.36-15.36 15.36s-15.36-7.168-15.36-15.36c0-125.952 102.4-228.352 228.352-228.352 74.752 0 145.408 36.864 188.416 99.328 5.12 7.168 3.072 16.384-4.096 21.504zM735.232 492.544m-35.84 0a35.84 35.84 0 1 1 71.68 0 35.84 35.84 0 1 1-71.68 0Z"  horiz-adv-x="1024" />

    
    <glyph glyph-name="wo" unicode="&#58951;" d="M682.282667 311.04a298.069333 298.069333 0 0 1 126.442666 243.882667C808.725333 719.744 675.136 853.333333 510.336 853.333333 345.536 853.333333 211.946667 719.744 211.946667 554.922667c0-104.277333 53.504-196.032 134.528-249.386667C195.093333 239.509333 88.384 90.218667 84.181333-84.48h42.645334c4.501333 169.578667 116.074667 312.469333 269.589333 363.562667a297.642667 297.642667 0 0 1 113.92-22.528c43.818667 0 85.44 9.450667 122.922667 26.410666 159.829333-47.381333 277.290667-193.344 281.898666-367.424h42.645334c-4.309333 179.712-117.162667 332.565333-275.52 395.498667z m-171.946667-11.861333c-141.248 0-255.765333 114.517333-255.765333 255.765333 0 141.269333 114.517333 255.765333 255.765333 255.765333s255.765333-114.496 255.765333-255.765333c0-141.269333-114.517333-255.765333-255.765333-255.765333z"  horiz-adv-x="1024" />

    
    <glyph glyph-name="faxian" unicode="&#58953;" d="M508.181333 853.333333c-259.2 0-469.333333-210.133333-469.333333-469.333333s210.133333-469.333333 469.333333-469.333333 469.333333 210.133333 469.333334 469.333333c0.021333 259.2-210.112 469.333333-469.333334 469.333333z m0.021334-896c-235.648 0-426.666667 191.018667-426.666667 426.666667s191.018667 426.666667 426.666667 426.666667 426.666667-191.018667 426.666666-426.666667-191.04-426.666667-426.666666-426.666667zM508.202667 384m-42.666667 0a42.666667 42.666667 0 1 1 85.333333 0 42.666667 42.666667 0 1 1-85.333333 0ZM271.253333 157.717333l339.413334 113.130667 113.130666 339.413333-339.413333-113.130666-113.130667-339.413334z m396.544 396.565334L582.656 298.88 327.253333 213.717333l85.141334 255.402667 255.402666 85.162667z"  horiz-adv-x="1024" />

    
    <glyph glyph-name="xinxi2" unicode="&#58981;" d="M511.774606-127.464545c282.57137 0 511.638454 229.069372 511.638453 511.639598S794.345975 895.81465 511.774606 895.81465C229.203236 895.81465 0.135008 666.746422 0.135008 384.175053S229.20438-127.464545 511.774606-127.464545z m43.053765 271.1941c0-22.843781-18.245506-41.399347-40.756344-41.399347-22.497108 0-40.742615 18.555566-40.742615 41.400491V455.867638c0 22.863231 18.245506 41.399347 40.742615 41.399347 22.510838 0 40.757488-18.534972 40.757488-41.399347V143.731844z m-40.756344 523.336081c32.062069 0 58.055651-26.412335 58.055651-58.986977 0-32.573497-25.994726-58.985832-58.055651-58.985832-32.070078 0-58.051075 26.412335-58.051075 58.985832s25.982141 58.986977 58.051075 58.986977z"  horiz-adv-x="1024" />

    
    <glyph glyph-name="jiantou" unicode="&#58982;" d="M116.044 224.015l344.761-344.761c3.25-3.227 7.414-5.537 12.069-6.511-4.416 1.381-4.336 1.327-4.24 1.286 2.287-0.955 4.937-1.577 7.712-1.729-3.582 0.467-3.358 0.363-3.111 0.315 1.598-0.32 3.22-0.486 4.834-0.487h48.79c8.073 0.011 15.222 3.961 19.629 10.031l341.854 341.856c4.414 4.41 7.144 10.505 7.144 17.237s-2.729 12.827-7.142 17.237l-34.474 34.482c-4.412 4.41-10.505 7.137-17.237 7.137s-12.825-2.727-17.237-7.137l-268.152-268.16v846.806c0 0.001 0 0.006 0 0.008 0 13.462-10.913 24.375-24.375 24.375-0.003 0-0.006 0-0.008 0h-48.758c0 0 0 0 0 0-13.462 0-24.375-10.913-24.375-24.375 0-0.003 0-0.006 0-0.008v-847.373l-268.727 268.727c-4.412 4.41-10.505 7.137-17.237 7.137s-12.825-2.727-17.237-7.137l-34.474-34.482c-4.417-4.411-7.148-10.507-7.148-17.241 0-6.73 2.728-12.823 7.14-17.233z"  horiz-adv-x="1024" />

    
    <glyph glyph-name="koubei" unicode="&#58888;" d="M426.068654 37.781209c-11.798076 0-23.839411 0.486519-35.637486 1.459556l-22.379855 1.824445v79.30253C218.690106 178.506711 114.818387 332.976363 114.818387 497.541276V658.335669c0 39.164746 31.866968 71.031714 71.031714 71.031714h651.326761c39.408006 0 71.518233-31.866968 71.518232-71.031714v-136.833353h0.486519v-24.325929c0-126.616463-53.760304-244.353961-151.307281-331.440789-91.222235-81.370234-212.122105-127.954389-331.805678-127.954389z m-9.365483 48.773489c3.162371-0.12163 6.203112-0.12163 9.365483-0.12163 107.885497 0 216.987291 42.083858 299.452192 115.548165 82.221642 73.464307 129.535574 171.011284 134.644019 276.464188V658.335669c0 12.284594-10.21689 22.379855-22.866373 22.379855H185.850101c-12.284594 0-22.379855-9.973631-22.379855-22.379855v-160.672764c0-146.320466 92.803421-283.275448 225.744625-333.265233l11.798076-4.500297 15.568595-5.959853v-67.382824zM512.668963 242.362276c-34.056301 0-57.895712 5.351704-60.328305 6.203112l-1.216296 0.364889c-109.588312 33.569783-162.618838 106.425941-187.796176 161.767431-22.988003 51.449341-27.001782 96.57394-27.731559 109.101793-0.12163 1.337926 0.12163 12.649483 3.162371 17.514669 4.743556 7.905927 13.014372 12.527854 22.136595 12.527854 9.608742 0 18.366077-5.108445 22.744744-13.500891 2.919112-5.594964 3.52726-11.798076 4.013779-17.879558l0.364889-3.284c1.702815-16.298373 6.93289-48.773489 23.352892-84.167716 30.042523-65.43675 82.100012-109.953201 154.469652-132.211427 12.771113-2.554223 46.949044-7.905927 87.330087-1.216296 55.463119 8.878964 99.614681 35.637487 131.360019 79.424159 0.973037 1.459556 2.310963 3.40563 3.648889 5.594964 4.257038 6.689631 9.608742 15.082076 15.446965 19.217484 7.419408 5.230075 16.784891 6.324742 24.690819 2.919112l0.243259 0.121629 2.189334-1.216296c0.12163-0.12163 0.364889-0.243259 0.486518-0.243259h0.12163c7.905927-4.500297 12.527854-11.068298 12.649483-17.879558 0.12163-12.892743-9.973631-28.218078-11.068298-29.920894-40.624302-60.571564-100.466089-98.398385-173.322247-109.466682-15.446965-2.554223-30.650671-3.770519-46.949044-3.770519zM763.226036 555.315358c-22.136596 0-40.624302-18.487706-40.624302-40.624302s18.487706-40.624302 40.624302-40.624302c22.866374 0 40.624302 18.487706 40.624303 40.624302s-18.487706 40.624302-40.624303 40.624302z"  horiz-adv-x="1024" />

    
    <glyph glyph-name="huanyipi" unicode="&#58918;" d="M129.342 46.217l3.011-3.345c97.187-108.324 235.834-170.446 380.365-170.446 235.677 0 438.964 159.171 495.871 387.606l-79.75 34.122c-40.634-192.445-218.687-341.3-416.111-341.3-115.487 0-223.172 59.282-303.2 143.62l-3.975 4.191 141.992 101.437L1.163 350.548v-395.89l128.179 91.559z m548.587 519.701l346.362-148.447V813.342l-128.179-91.559-3.011 3.345C795.915 833.452 657.268 895.574 512.717 895.574 277.552 895.574 74.383 736.836 17.141 508.971l79.14-32.772c41.44 191.187 220.045 338.948 416.446 338.948 115.507 0 223.172-59.263 303.2-143.6l3.975-4.191-141.973-101.438z"  horiz-adv-x="1024" />

    
    <glyph glyph-name="diqiu1" unicode="&#58903;" d="M1023.969 383.903c0 282.258-228.985 511.074-511.453 511.074-282.473 0-511.463-228.816-511.463-511.074 0-260.738 195.391-475.854 447.837-507.156 14.231-2.999 31.565-4.747 52.21-4.747 5.796 0 11.385 0.305 16.782 0.857 279.996 2.877 506.087 230.567 506.087 511.045zM950.836 376.672c-1.471 25.5-4.84 50.461-9.969 74.719 0.455 8.662 0.579 16.868 0.347 24.497 6.343-29.661 9.688-60.432 9.688-91.985 0.001-2.416-0.027-4.825-0.065-7.231zM74.121 383.903c0 30.977 3.225 61.201 9.345 90.361 18.932-20.248 63.554-19.77 74.436 10.483 19.471-11.605 45.637-13.717 45.637-36.912 0-76.55 2.726-158.619 72.279-159.887 1.958-0.026 38.789-13.958 56.317-59.416 6.061-15.712 30.033 0 56.322 0 13.124 0 0-22.11 0-69.922 0-47.626 102.681-120.96 102.681-120.96-0.476-31.526 0.819-57.018 3.442-77.383-23.177 0.427-42.71-2.645-58.055-7.869-205.897 35.956-362.404 215.458-362.404 431.504zM620.441-40.784c-2.273 11.127-12.215 17.22-30.356 12.452 14.475 61.641 21.511 96.17 51.729 122.387 43.72 37.899 5.206 80.044-28.063 75.077-26.222-3.959-9.651 32.467-33.056 34.482-23.404 1.958-53.969 48.512-87.653 64.53-17.855 8.48-35.403 31.204-62.94 32.222-24.407 0.946-60.076-20.638-60.076-4 0 53.591-5.426 91.832-6.542 107.104-0.9 12.27-8.020 4.133 24.974 3.34 17.957-0.481 9.186 36.068 26.959 37.495 17.456 1.381 59.053-16.341 69.651-9.278 9.846 6.577 72.371-164.127 72.371-28.217 0 16.126-8.352 44.164 0 59.437 33.030 60.352 63.952 109.539 61.175 116.735-1.576 4.051-33.792 7.396-59.57-1.253-8.7-2.905 2.767-16.53-9.728-19.44-46.814-10.807-88.175 12.623-73.691 34.646 14.832 22.571 68.571 9.846 73.282 55.125 2.711 25.936 4.957 55.974 6.46 78.299 63.005-9.853 56.069 81.768-37.613 91.574 189.526-2.217 350.128-124.616 409.063-294.487-2.981 2.719-6.448 4.371-10.453 4.774-28.324 70.75-97.074 19.548-73.753-42.855-124.959-96.057-92.973-163.052-51.918-201.417 21.604-20.167 42.2-50.497 55.611-72.279-14.596-42.561 53.781-25.518 87.504 46.71-42.895-148.763-162.557-265.012-313.366-303.162z"  horiz-adv-x="1024" />

    
    <glyph glyph-name="taocanyuliang" unicode="&#59042;" d="M860.632757 186.455081l-323.459978 208.749876V780.368942c212.740682 0 385.266314-172.525632 385.266314-385.266314-0.102328-76.950934-22.921555-148.478465-61.806336-208.647547zM488.976117-14.210852c-212.740682 0-385.266314 172.525632-385.266314 385.266313s172.525632 385.266314 385.266314 385.266314V371.055461l323.459978-208.749875c-68.560008-106.11452-187.670231-176.516438-323.459978-176.516438z"  horiz-adv-x="1024" />

    
    <glyph glyph-name="gupiao" unicode="&#58904;" d="M212.639 285.435c9.842-8.111 22.148-12.486 34.726-12.486 2.156 0 4.314 0.127 6.47 0.382 14.808 1.778 28.237 9.546 37.264 21.487l112.912 149.838 112.423-95.181c11.399-9.635 26.189-14.425 41.032-12.648 14.825 1.561 28.381 9.091 37.552 20.922l258.211 332.759c1.885 2.431 3.372 5.045 4.805 7.658l45.328 53.678c24.285 28.762 13.846 47.436-23.2 41.483l-213.626-34.297c-37.063-5.953-44.766-31.703-17.126-57.254l42.718-39.47-148.599-191.501-113.020 95.706c-11.509 9.69-26.388 14.265-41.431 12.611-14.935-1.67-28.545-9.454-37.626-21.521l-113.401-150.493-54.462 44.805c-23.452 19.308-58.033 15.86-77.208-7.767-19.175-23.59-15.731-58.36 7.739-77.633l98.519-81.080zM855.712 536.569l-251.813-306.626c-11.31-14.335-40.073 6.243-53.955 18.037l-101.205 89.030c-13.882 11.795-34.688-8.166-46.233-22.321l-117.607-144.267c-11.526-14.155-32.261 2.068-46.034 13.992l-102.617 81.607c-18.413 17.71-35.977-0.763-35.977-36.076l0.634-218.561c0.036-18.328 14.933-33.317 33.076-33.336l759.899-0.6c18.16-0.017 33.004 14.972 33.004 33.3 0 0 0.76 471.981 0.76 507.802 0.019 48.034-37.914 57.252-71.933 18.019z"  horiz-adv-x="1024" />

    
    <glyph glyph-name="xiangmulan-weixinhao" unicode="&#58920;" d="M475.865 834c-214.979 0-391.109-146.569-391.109-332.605 0-107.412 58.658-195.632 156.474-264.041l-39.157-117.626 136.665 68.564c48.908-9.751 88.221-19.657 136.973-19.657 12.227 0 24.454 0.619 36.527 1.548-7.584 26.156-12.073 53.551-12.073 81.875 0 170.868 146.723 309.545 332.451 309.545 12.692 0 25.228-0.929 37.61-2.321-33.741 157.713-202.133 274.72-394.359 274.72zM336.259 544.576c-44.884 0-76.613 25.228-76.613 65.778s31.729 68.873 76.613 68.873 76.613-28.324 76.613-68.873-31.729-65.778-76.613-65.778zM627.232 544.576c-44.884 0-76.612 25.228-76.612 65.778s31.729 68.873 76.612 68.873 76.612-28.324 76.612-68.873-31.729-65.778-76.612-65.778zM1189.518 256.854c0 156.32-156.474 283.853-332.141 283.853-186.037 0-332.605-127.377-332.605-283.853 0-156.629 146.569-283.853 332.605-283.853 39.002 0 78.16 9.751 117.317 19.657l107.258-58.658-29.407 97.661c78.624 58.969 136.973 137.127 136.973 225.193zM752.907 293.071c-33.895 0-61.445 22.287-61.445 49.991s27.549 49.991 61.445 49.991 61.445-22.287 61.445-49.991-27.395-49.991-61.445-49.991zM964.325 293.071c-33.895 0-61.445 22.287-61.445 49.991s27.549 49.991 61.445 49.991 61.445-22.287 61.445-49.991-27.549-49.991-61.445-49.991z"  horiz-adv-x="1256" />

    
    <glyph glyph-name="selected" unicode="&#58983;" d="M512.703 862.555c-264.698 0-479.278-214.58-479.278-479.278s214.58-479.277 479.278-479.277 479.277 214.58 479.277 479.278-214.58 479.276-479.278 479.276zM747.2 501.816l-268.453-319.928c-14.992-17.865-41.627-20.196-59.492-5.205l-3.774 3.167c-5.41 4.566-9.623 10.38-12.215 17.008l-112.641 104.858c-17.865 14.991-20.196 41.625-5.204 59.491l3.166 3.774c14.991 17.865 41.627 20.196 59.492 5.204l94.703-92.107 235.949 281.192c14.991 17.865 41.625 20.196 59.491 5.204l3.773-3.167c17.864-14.991 20.195-41.625 5.205-59.491z"  horiz-adv-x="1024" />

    
    <glyph glyph-name="shurushoujihao" unicode="&#59138;" d="M837.81632 896H186.18368C83.35872 896 0 812.64128 0 709.81632v-453.0432c0-102.82496 83.35872-186.18368 186.18368-186.18368h187.59168L310.30272-128l353.74592 198.59456h173.76768c102.82496 0 186.18368 83.35872 186.18368 186.18368V709.81632C1024 812.64128 940.64128 896 837.81632 896z m105.50272-639.22688c0-58.2656-47.23712-105.50272-105.50272-105.50272h-217.21088l-173.76768-111.70816 37.7088 111.70816H186.18368c-58.2656 0-105.50272 47.23712-105.50272 105.50272V709.81632c0 58.2656 47.23712 105.50272 105.50272 105.50272h651.63776c58.2656 0 105.50272-47.23712 105.50272-105.50272v-453.0432z m-201.69216 359.95648H282.37312a40.34048 40.34048 0 1 1 0-80.68096h459.24864a40.34048 40.34048 0 0 1 0.00512 80.68096z m0-192.38912H282.37312a40.34048 40.34048 0 1 1 0-80.68096h459.24864a40.34048 40.34048 0 0 1 0.00512 80.68096z"  horiz-adv-x="1024" />

    
    <glyph glyph-name="huanyipi1" unicode="&#58922;" d="M1021.107345 380.818079l-133.640678-216.370621-133.640678 216.370621h95.197288V384a336.965424 336.965424 0 0 1-519.81017 283.017401 49.724746 49.724746 0 1 0-54.179435 83.453107A436.241356 436.241356 0 0 0 948.357062 384v-3.181921z m-326.233673-279.83548a336.99435 336.99435 0 0 0-519.810169 279.83548H270.174011l-133.640678 216.370622L2.892655 380.818079h72.750283a436.414915 436.414915 0 0 1 673.32339-363.288587 49.724746 49.724746 0 1 1-54.063729 83.453107z"  horiz-adv-x="1024" />

    
    <glyph glyph-name="f11-copy" unicode="&#58882;" d="M328.20792302595464 549.9378430603648l368.4938888522427 0c20.393071563698495 0 36.887279252459585-16.366076012119944 36.887279252459585-36.757317123294996 0-9.4835745239675-3.6371091640848143-18.055583691259486-9.4835745239675-24.550029244441628l-182.23253142407032-243.15182185683665c-12.210948783900248-16.104321301267337-35.199602025843475-19.483336659546435-51.43754636132228-7.274218328169629-2.859166841620776 2.0793940666332906-5.324786390700918 4.546844068236879-7.274218328169629 7.274218328169629L298.85295590747035 491.2279088233963c-12.079156202212225 16.10615175379078-8.830102973097707 39.22476712489858 7.404180457334207 51.305753779634244C312.8833744996749 547.6003551879257 320.5456487628147 549.9378430603648 328.20792302595464 549.9378430603648L328.20792302595464 549.9378430603648z"  horiz-adv-x="1024" />

    
    <glyph glyph-name="xingzhuang60kaobei2" unicode="&#58923;" d="M1077.529145 507.793752C1072.06379 524.466544 1056.511742 535.673981 1039.008769 535.673981L686.956883 535.673981 578.161726 868.175116C572.876243 884.792563 557.37954 896 539.765877 896 522.262904 896 506.710856 884.792563 501.370028 868.299643L392.450343 535.673981 40.467639 535.673981C22.909321 535.673981 7.398781 524.466544 2.002608 507.793752-3.462747 491.286996 2.528389 473.036861 16.682967 462.880986L301.504067 257.46665199999995 192.764255-75.21435499999995C187.243555-91.77645700000005 193.234691-109.86055599999997 207.444614-120.12712099999999 221.474665-130.338342 240.845544-130.338342 254.944776-120.12712099999999L539.765877 85.41173900000001 824.642322-120.12712099999999C831.629675-125.19122300000004 839.972989-127.82012799999995 848.371649-127.82012799999995 856.701127-127.82012799999995 865.099787-125.19122300000004 872.142485-120.12712099999999 886.297062-109.86055599999997 892.288199-91.77645700000005 886.767498-75.21435499999995L778.138377 257.46665199999995 1062.793441 462.880986C1076.934183 473.036861 1082.869974 491.286996 1077.529145 507.793752Z"  horiz-adv-x="1080" />

    
    <glyph glyph-name="yuyin" unicode="&#58924;" d="M344.96 533.3530000000001l-146.526-150.83L347.89 231.68600000000004c79.122 82.808 79.122 218.856-2.93 301.667zM494.413 681.235l-73.263-73.941c123.083-124.215 123.083-325.328 0-449.546l73.263-73.938c164.11 165.625 164.11 431.797 0 597.425zM640.944 832.066l-73.266-73.941c205.138-207.023 205.138-541.221 0-748.256l73.266-73.935c246.163 245.478 246.163 647.699 0 896.132z"  horiz-adv-x="1024" />

    
    <glyph glyph-name="qian" unicode="&#58885;" d="M723.147321 888.603393C444.82849 888.603393 218.45792 662.232824 218.45792 383.913993c0-278.318831 226.370569-504.6894 504.689401-504.6894 278.318831 0 504.6894 226.370569 504.6894 504.6894 0 278.318831-226.370569 504.6894-504.6894 504.6894z m0-962.07492c-252.172686 0-457.38552 205.212834-457.38552 457.38552 0 252.172686 205.212834 457.38552 457.38552 457.38552s457.38552-205.212834 457.38552-457.38552c0-252.172686-205.212834-457.38552-457.38552-457.38552zM896.537544 369.292794c17.373425 0 31.478582 14.105157 31.478582 31.478582 0 17.373425-14.105157 31.478582-31.478582 31.478582h-141.911641v16.857383l146.90005 146.90005c12.385016 12.385016 12.385016 32.338653 0 44.551655-12.385016 12.385016-32.338653 12.385016-44.551654 0l-133.826978-133.826978-133.826978 133.826978c-12.385016 12.385016-32.338653 12.385016-44.551655 0-12.385016-12.385016-12.385016-32.338653 0-44.551655l146.90005-146.90005v-16.857383h-141.911641c-17.373425 0-31.478582-14.105157-31.478582-31.478582 0-17.373425 14.105157-31.478582 31.478582-31.478582h141.911641v-72.761969h-141.911641c-17.373425 0-31.478582-14.105157-31.478582-31.478582 0-17.373425 14.105157-31.478582 31.478582-31.478583h141.911641V149.45876c0-17.373425 14.105157-31.478582 31.478583-31.478582 17.373425 0 31.478582 14.105157 31.478582 31.478582v83.942886h141.911641c17.373425 0 31.478582 14.105157 31.478582 31.478582 0 17.373425-14.105157 31.478582-31.478582 31.478583h-141.911641v72.761968c0.172014 0.172014 141.911641 0.172014 141.911641 0.172015m0 0"  horiz-adv-x="1448" />

    
    <glyph glyph-name="canjiren" unicode="&#58940;" d="M512 384m-512 0a512 512 0 1 1 1024 0 512 512 0 1 1-1024 0ZM449.152 547.776a44.48 44.48 0 0 1 44.416 44.352 44.288 44.288 0 0 1-44.416 44.352 44.352 44.352 0 1 1 0-88.704M665.216 217.216c7.04-11.52 23.36-16.256 35.648-8.896a26.24 26.24 0 0 1 8.896 35.52L633.984 374.592a25.92 25.92 0 0 1-21.44 12.544H501.44l-1.088 39.296h80.704c11.008 0.704 20.032 9.088 20.032 20.288a20.096 20.096 0 0 1-20.032 20.096H498.048l-2.88 32.448a43.456 43.456 0 0 1-45.248 40.384 43.2 43.2 0 0 1-40.512-45.376l7.808-134.784c1.92-23.616 21.696-40.384 45.12-40.384h144l58.88-101.888zM477.696 166.528a131.904 131.904 0 0 0-131.968 131.968c0 39.936 18.112 75.584 46.336 99.84l-2.432 41.152a166.016 166.016 0 0 1-78.784-141.056 166.912 166.912 0 0 1 166.848-166.912 166.72 166.72 0 0 1 152 99.072l-23.488 40.576a131.584 131.584 0 0 0-128.512-104.64"  horiz-adv-x="1024" />

    
    <glyph glyph-name="nan" unicode="&#58941;" d="M512 896c283.307 0 512-228.693 512-512s-228.693-512-512-512S0 100.69299999999998 0 384 228.693 896 512 896zM413.013 172.37300000000005H614.4v-88.746s-51.2-13.654-98.987-13.654c-51.2 0-98.986 13.654-98.986 13.654v88.746h-3.414zM286.72 424.96s0 10.24-17.067 10.24c-20.48 0-30.72-20.48-34.133-23.893-3.413-10.24-10.24-47.787 17.067-75.094 17.066-13.653 44.373-10.24 44.373-10.24l-10.24 98.987z m447.147-3.413s0 10.24 17.066 10.24c20.48 0 34.134-20.48 34.134-23.894 3.413-10.24 10.24-47.786-17.067-75.093-17.067-13.653-47.787-10.24-47.787-10.24l13.654 98.987zM269.653 554.6669999999999s20.48-249.174 37.547-296.96c23.893-64.854 78.507-85.334 119.467-105.814C453.973 138.24 474.453 131.413 512 128c40.96 0 51.2 6.827 81.92 20.48 54.613 20.48 92.16 44.373 116.053 92.16 20.48 40.96 40.96 300.373 40.96 300.373L672.427 640l-402.774-85.333zM515.413-128L395.947 69.97299999999996h235.52zM515.413 73.38699999999994l27.307-37.547-13.653-23.893 10.24-119.467-23.894-20.48-27.306 20.48 10.24 119.467-13.654 23.893zM474.453 762.88C286.72 745.813 266.24 602.453 262.827 571.733c-3.414-27.306 6.826-136.533 6.826-136.533s10.24-6.827 10.24-10.24c3.414-13.653 3.414-44.373 3.414-44.373h10.24s-3.414 116.053 3.413 139.946c6.827 23.894 54.613 47.787 54.613 47.787s0-10.24-3.413-20.48-13.653-23.893-13.653-23.893 23.893 0 44.373 6.826c27.307 6.827 54.613 20.48 54.613 20.48s0-6.826-3.413-13.653-10.24-13.653-10.24-13.653 88.747 6.826 153.6 27.306c51.2 17.067 85.333 51.2 85.333 51.2s44.374-17.066 58.027-88.746c13.653-58.027 6.827-109.227 6.827-146.774h10.24s0 34.134 3.413 44.374c3.413 20.48 23.893 17.066 23.893 20.48 0 17.066 17.067 109.226 0 177.493-13.653 54.613-61.44 105.813-88.746 119.467-30.72 13.653-85.334 44.373-197.974 34.133z m269.654-696.32c-51.2 27.307-116.054 23.893-116.054 23.893L515.413-128c116.054 0 218.454 37.547 303.787 102.4-6.827 23.893-23.893 68.267-75.093 92.16zM515.413-128l-122.88 218.453s-64.853 3.414-116.053-23.893c-37.547-23.893-64.853-75.093-71.68-92.16 85.333-61.44 194.56-102.4 310.613-102.4zM614.4 124.58699999999999l-98.987-51.2 51.2-64.854 88.747 78.507z m-201.387 0l102.4-51.2-54.613-64.854-88.747 78.507zM515.413 196.26700000000005c-13.653 0-34.133 0-47.786 13.653-3.414 3.413-3.414 6.827 0 6.827 3.413 3.413 6.826 3.413 6.826 0 10.24-10.24 23.894-13.654 40.96-13.654 20.48 0 34.134 3.414 40.96 13.654 0 0 3.414 3.413 6.827 0 3.413 0 3.413-3.414 3.413-3.414v-3.413c-17.066-10.24-37.546-13.653-51.2-13.653z"  horiz-adv-x="1024" />

    
    <glyph glyph-name="iconjia" unicode="&#58887;" d="M902.3434168395388 325.0641317984599h-331.7799727632157v-331.8328909365038c0-32.33699770347935-26.226446372843796-58.53748421772893-58.56444253242294-58.53748421772893-32.33699770347935 0-58.56344407632318 26.200486514249597-58.56344407632318 58.53748421772893v331.8328909365038h-331.7819696754152c-32.36395601817335 0-58.56344407632318 26.200486514249597-58.56344407632318 58.53748421772893 0 32.32501623028203 26.20248342644915 58.53748421772893 58.56344407632318 58.53748421772893h331.7799727632157v331.8328909365038c0 32.32501623028203 26.226446372843796 58.53748421772893 58.56344407632318 58.53748421772893 32.33799615957912 0 58.56444253242294-26.213466443546704 58.56444253242294-58.53748421772893v-331.8338893926036h331.7799727632157c32.36395601817335 0 58.56444253242294-26.21146953134715 58.56444253242294-58.535487305529394-0.0009984560997770514-32.33699770347935-26.200486514249597-58.535487305529394-58.56444253242294-58.535487305529394z"  horiz-adv-x="1024" />

    
    <glyph glyph-name="aixinjuanzeng1" unicode="&#58913;" d="M537.220741 637.743407c-57.837037 80.782222-175.976296 167.367111-329.879704 103.196445-199.964444-83.380148-252.188444-390.068148 4.778667-581.214815 82.014815-61.041778 181.475556-98.702222 239.388444-114.194963 35.176296-9.462519 65.72563-16.19437 65.72563-16.19437s2.048 9.253926 13.824 10.657185c11.757037 1.384296 9.860741 15.606519 24.974222 18.469926 15.113481 2.88237 17.445926 12.932741 17.445926 12.932741s-170.059852 28.86163-305.588148 141.008592c-163.877926 135.528296-132.816593 288.57837-65.611852 370.744889 74.372741 91.041185 183.808 96.180148 258.503111 50.782815 69.30963-42.192593 105.566815-102.513778 99.915852-160.085333-5.347556-54.518519-33.640296-34.759111-42.154667-8.666075-12.003556 36.788148 3.868444 65.232593 8.741926 78.222223-9.291852 13.653333-18.166519 25.258667-29.354667 34.095407-10.107259-20.233481-22.395259-48.222815-16.687407-84.15763 8.912593-56.092444 72.00237-92.387556 90.889482-38.229333 9.291852 26.642963 15.17037 79.872-6.485334 132.835556 36.465778 36.408889 84.043852 68.266667 164.067556 51.598222 75.282963-15.644444 145.692444-101.072593 113.133037-204.724148-40.865185-130.104889-178.574222-132.835556-178.574222-132.835556s0.682667-31.971556-12.970667-47.559111c-22.395259-25.618963-3.982222-42.533926-14.241185-55.940741-10.145185-13.406815-2.635852-50.669037-2.635852-50.669037s76.743111 8.760889 196.532148 87.324445c68.494222 44.904296 125.705481 119.144296 134.637037 217.031111 7.68 84.195556-13.12237 161.60237-78.411852 219.591111-111.104 98.664296-271.928889 59.164444-349.942518-34.019556z"  horiz-adv-x="1024" />

    
    <glyph glyph-name="scan" unicode="&#58906;" d="M39.78 495.11a27.77 27.77 0 0 1 27.78 27.78V828.44h305.55a27.78 27.78 0 1 1 0 55.56H39.78A27.77 27.77 0 0 1 12 856.22v-333.33a27.77 27.77 0 0 1 27.78-27.78zM373.11-60.440000000000055H67.56V245.11a27.78 27.78 0 1 1-55.56 0v-333.33A27.77 27.77 0 0 1 39.78-116h333.33a27.78 27.78 0 0 1 0 55.56zM984.22 884H650.89a27.78 27.78 0 1 1 0-55.56h305.55v-305.55a27.78 27.78 0 1 1 55.56 0V856.22A27.76 27.76 0 0 1 984.22 884zM984.22 272.89a27.76 27.76 0 0 1-27.78-27.78v-305.55H650.89a27.78 27.78 0 1 1 0-55.56h333.33a27.76 27.76 0 0 1 27.78 27.78V245.11a27.76 27.76 0 0 1-27.78 27.78zM984.22 411.78H39.78a27.78 27.78 0 0 1 0-55.56h944.44a27.78 27.78 0 0 1 0 55.56z"  horiz-adv-x="1024" />

    
    <glyph glyph-name="f11-copy1" unicode="&#58889;" d="M653.9750045289769 255.81696617231796l-284.652757616345 9.811464160558126e-14c-15.753162352176458 7.358598120418596e-15-28.494545168392424 12.64240414602009-28.494545168392413 28.394152517193756 1.839649530104649e-15 7.325835575498272 2.8095802525603313 13.947508611602958 7.325835575498276 18.964313209531515l140.77029271459298 187.82899446872486c9.43266726966782 12.440204862619913 27.190854683812358 15.050413793785667 39.73428015963655 5.619160505120641 2.2086383263710285-1.6062824191789309 4.113270737140411-3.5123288109511117 5.619160505120657-5.619160505120661L676.6510178708544 301.16899285607235c9.330860637466333-12.441618843622717 6.821044357499247-30.30019890896592-5.719553156319353-39.63247352743505C665.8128534844052 257.6226199128914 659.893929006691 255.81696617231796 653.9750045289769 255.81696617231796L653.9750045289769 255.81696617231796z"  horiz-adv-x="1024" />

    
    <glyph glyph-name="shipin" unicode="&#58925;" d="M375.381262 146.683739a124.558259 124.558259 0 1 0 124.558258-124.558259 124.558259 124.558259 0 0 0-124.558258 124.558259zM655.965128 395.800256a124.558259 124.558259 0 1 0 124.558259-124.558259 124.558259 124.558259 0 0 0-124.558259 124.558259zM375.381262 646.227913a124.558259 124.558259 0 1 0 124.558258-124.558259 124.558259 124.558259 0 0 0-124.558258 124.558259zM125.609174 395.800256a124.558259 124.558259 0 1 0 124.558259-124.558259 124.558259 124.558259 0 0 0-124.558259 124.558259z m308.773368 0a65.556978 65.556978 0 1 0 65.556978-65.556978 65.556978 65.556978 0 0 0-65.556978 65.556978z m327.784891-422.84251a228.793854 228.793854 0 0 1 186.837388-76.046094 268.128041 268.128041 0 0 1 46.545455 97.024328 216.338028 216.338028 0 0 0-131.113957 65.556978 498.233035 498.233035 0 1 1-100.957746-83.912932z m0 0"  horiz-adv-x="1049" />

    
    <glyph glyph-name="Bduanicon_shengchengshoukuanma" unicode="&#58976;" d="M837.82848 859.392H186.24448A188.736 188.736 0 0 1 0.00448 669.312v-570.56a188.736 188.736 0 0 1 186.176-190.144H837.76448A188.736 188.736 0 0 1 1024.00448 98.688V669.312A188.736 188.736 0 0 1 837.76448 859.392z m113.024-760.64a115.2 115.2 0 0 0-113.024-117.056H186.24448a115.2 115.2 0 0 0-113.024 117.056V669.248a115.2 115.2 0 0 0 113.024 117.056H837.76448a115.2 115.2 0 0 0 113.024-117.056z m0 0M219.46048 623.936a30.464 30.464 0 0 1-30.528-30.528v-402.24a30.464 30.464 0 0 1 60.992 0V593.408a30.464 30.464 0 0 1-30.464 30.528z m146.24-12.16a18.304 18.304 0 0 1-18.24-18.368v-402.24a18.304 18.304 0 0 1 36.544 0V593.408a18.304 18.304 0 0 1-18.304 18.304z m292.608 0a18.304 18.304 0 0 1-18.304-18.368v-402.24a18.304 18.304 0 0 1 36.544 0V593.408a18.304 18.304 0 0 1-18.24 18.304zM512.00448 623.872a30.464 30.464 0 0 1-30.464-30.528v-402.24a30.464 30.464 0 0 1 60.928 0V593.408A30.464 30.464 0 0 1 512.00448 624z m292.544 0a30.464 30.464 0 0 1-30.464-30.528v-402.24a30.464 30.464 0 1 1 60.992 0V593.408a30.464 30.464 0 0 1-30.528 30.528z m0 0"  horiz-adv-x="1024" />

    
    <glyph glyph-name="arrow-left" unicode="&#59245;" d="M624.981 384.133l-292.155-292.16c-12.28-12.27-12.28-32.186 0-44.457 12.27-12.28099999 32.186-12.281 44.457 0l314.388 314.388c12.28 12.27 12.28 32.186 0 44.457l-314.388 314.387c-6.136 6.14-14.183 9.211-22.228 9.211s-16.092-3.071-22.228-9.21099999c-12.28-12.27-12.28-32.186-1e-8-44.45700001l292.15500001-292.159z"  horiz-adv-x="1024" />

    
    <glyph glyph-name="nv" unicode="&#58942;" d="M281.6 237.568c0-23.552 18.944-42.496 42.496-42.496 23.552 0 42.496 18.944 42.496 42.496s-18.944 42.496-42.496 42.496c-23.552 0-42.496-19.456-42.496-42.496z m354.304 0c0-23.552 18.944-42.496 42.496-42.496s42.496 18.944 42.496 42.496-18.944 42.496-42.496 42.496-42.496-19.456-42.496-42.496z m306.176 128c0 5.632 0 11.776-0.512 17.408 0 3.072 0.512 6.144 0.512 9.216 0.512 8.704-1.024 17.92-4.096 27.648-18.944 145.408-108.032 305.664-316.416 347.136 2.56 8.704 4.096 17.408 4.096 26.624 0 56.32-50.688 102.4-113.152 102.4-62.464 0-113.152-45.568-113.152-102.4 0-9.216 1.536-18.432 4.096-27.136-231.936-47.104-318.976-245.76-320-402.432-32.256-24.064-52.736-62.464-52.736-104.448 0-53.76 32.768-101.376 81.92-120.832 46.592-296.448 66.56-216.576 66.56-181.248 0 15.872-7.168 61.952-8.704 117.76 17.92-32.256 39.936-62.464 67.072-89.6 73.216-73.216 171.008-113.664 274.944-113.664s201.728 40.448 274.944 113.664c17.408 17.408 32.256 35.84 46.08 55.296-2.048-49.152-3.072-91.648-3.072-107.52 0-35.328 34.304 9.216 70.144 159.744 3.584 15.872 7.168 30.208 10.24 44.032 51.2 18.432 86.016 67.072 86.016 122.368-1.024 43.008-21.504 81.92-54.784 105.984z m-893.44-105.472c0 31.744 13.312 61.44 35.84 81.92 0.512-2.56 0.512-4.608 1.024-7.168 8.704-68.608 16.896-125.952 24.064-174.592-36.864 18.944-60.928 56.832-60.928 99.84z m785.92-182.784c-64-112.128-184.32-187.392-322.048-187.392-154.112 0-286.208 94.208-342.528 227.84 1.536 78.848 17.408 166.912 75.264 216.576 62.464 53.76 92.672 142.336 107.52 209.92 13.824-59.904 44.544-131.584 115.2-148.48 119.808-28.16 172.544-29.184 227.328-30.208 26.112-0.512 135.68 4.096 146.944-106.496 0 1.024-4.096-93.184-7.68-181.76z m79.872 81.92c14.848 72.704 20.48 122.368 23.552 169.472 1.536 4.096 2.56 8.704 3.072 14.848 23.04-20.992 36.864-50.688 36.864-82.944 0-44.544-25.088-82.944-63.488-101.376z"  horiz-adv-x="1024" />

    
    <glyph glyph-name="music" unicode="&#58926;" d="M286.05071258 16.385711669999978C219.6879845 16.385711669999978 164.38571167 70.10792004999996 164.38571167 138.05071257999998s53.72220838 121.66500092 121.66500092 121.66500092c26.86110385 0 52.14214326-9.48038943 74.26305238-25.28103939l6.32025984-4.74019472V619.97052153c0 23.70097427 18.96077955 42.66175381 41.08168869 42.66175314l406.07669143 47.40194854h3.16012958C839.07344433 711.61428833 859.61428833 692.65350878 859.61428833 668.95253452v-456.63876955c0-33.18136371-12.6405197-63.20259781-36.34149396-85.32350694-22.12090913-22.12090913-53.72220838-34.76142883-85.32350696-34.76142884-66.36272808 0-121.66500092 53.72220838-121.66500091 121.66500092 0 66.36272808 53.72220838 121.66500092 121.66500092 121.66500092 26.86110385 0 53.72220838-9.48038943 74.26305238-25.28103941l6.32025985-4.74019472V517.26630017l-410.81688615-44.24181895v-334.97376863c-1.58006513-67.94279254-55.30227283-121.66500092-121.66500092-121.66500092z m1e-8 200.66824802c-44.24181827 0-80.58331223-36.34149397-80.58331224-80.58331223s36.34149397-80.58331223 80.58331224-80.58331224 80.58331223 36.34149397 80.58331222 80.58331224c-1.58006513 45.8218834-36.34149397 80.58331223-80.58331222 80.58331223z m451.89857483 75.84311752c-44.24181827 0-80.58331223-36.34149397-80.58331223-80.58331224s36.34149397-80.58331223 80.58331223-80.58331223 80.58331223 36.34149397 80.58331223 80.58331223-36.34149397 80.58331223-80.58331223 80.58331224z m-331.81363905 221.20909269l410.81688614 44.24181827V670.5325996500001l-406.07669142-47.40194853h-4.74019472v-109.02448122z"  horiz-adv-x="1024" />

    
    <glyph glyph-name="shipin1" unicode="&#58950;" d="M190.089014-111.846761c-18.60507 0-37.210141 4.903662-54.228732 14.566761C101.246197-77.521127 80.766197-42.04169 80.766197-2.379718V770.379718c0 39.229296 20.191549 74.564507 54.084507 94.323381C168.743662 884.606197 209.415211 885.038873 243.740845 865.712676l669.494085-376.572394c34.469859-19.326197 55.23831-54.517183 55.670985-94.179155 0.432676-39.517746-19.614648-75.141408-53.65183-95.332958L245.904225-96.414648c-17.451268-10.24-36.633239-15.432113-55.815211-15.432113z"  horiz-adv-x="1024" />

    
    <glyph glyph-name="qiabao" unicode="&#58890;" d="M896.000256 896H128.000256A128 128 0 0 1 0.000256 768v-768a126.336 126.336 0 0 1 10.112-49.792 122.88 122.88 0 0 1 11.776-21.76c2.304-3.456 4.736-6.656 7.296-9.856a139.776 139.776 0 0 1 17.408-17.408A128 128 0 0 1 128.000256-128h768a128 128 0 0 1 81.408 29.184 139.776 139.776 0 0 1 17.408 17.408c2.56 3.2 4.992 6.4 7.296 9.856a122.88 122.88 0 0 1 11.776 21.76A126.336 126.336 0 0 1 1024.000256 0V768A128 128 0 0 1 896.000256 896zM128.000256 832h768a64 64 0 0 0 64-64v-145.28A128 128 0 0 1 896.000256 640H128.000256a128 128 0 0 1-64-17.28V768a64 64 0 0 0 64 64z m832-465.28A128 128 0 0 1 896.000256 384H672.000256a160 160 0 0 0-320 0H128.000256a128 128 0 0 1-64-17.28V512a64 64 0 0 0 64 64h768a64 64 0 0 0 64-64zM960.000256 0a64 64 0 0 0-64-64H128.000256a64 64 0 0 0-64 64V256a64 64 0 0 0 64 64h169.344a224 224 0 0 1 429.312 0H896.000256a64 64 0 0 0 64-64z"  horiz-adv-x="1024" />

    
    <glyph glyph-name="xiUCD" unicode="&#58943;" d="M414.53568 388.37248c12.04224-14.19264 15.95392-25.16992 11.69408-32.96256-4.25984-7.81312-18.44224-13.83424-42.53696-18.08384 8.4992-6.37952 14.70464-11.8784 18.60608-16.47616 3.8912-4.61824 5.8368-8.704 5.8368-12.2368 0-3.56352-1.77152-7.09632-5.31456-10.62912-3.56352-3.56352-8.16128-7.82336-13.824-12.75904-2.83648-2.12992-7.44448-6.38976-13.83424-12.75904a876.544 876.544 0 0 0 37.2224 6.36928c9.92256 1.42336 18.08384 1.9456 24.46336 1.59744 6.38976-0.3584 11.70432-1.59744 15.95392-3.71712 4.25984-2.12992 8.51968-4.61824 12.76928-7.45472 17.01888-14.87872 23.93088-26.58304 20.72576-35.09248-3.18464-8.50944-21.10464-13.12768-53.69856-13.83424-10.63936 0-24.4736-1.06496-41.48224-3.19488s-35.26656-4.78208-54.76352-7.96672a2465.28 2465.28 0 0 1-118.05696-22.34368 916.91008 916.91008 0 0 1-48.40448-11.69408c-14.1824-3.91168-24.45312-7.28064-30.83264-10.10688-11.34592-5.69344-20.92032-9.5744-28.71296-11.70432-7.81312-2.12992-15.07328-2.6624-21.80096-1.59744-6.74816 1.06496-13.64992 3.90144-20.736 8.51968C60.7232 164.864 52.224 171.4176 42.2912 179.92704c-18.44224 16.31232-26.23488 27.99616-23.38816 35.09248 2.82624 7.07584 18.432 9.9328 46.7968 8.51968 9.91232-0.7168 23.56224-0.36864 40.94976 1.06496 17.3568 1.41312 40.23296 4.2496 68.59776 8.4992a489.82016 489.82016 0 0 0-11.17184 15.42144 69.36576 69.36576 0 0 0-7.97696 15.42144c-7.81312 18.432-10.82368 30.85312-9.04192 37.23264 1.76128 6.37952 13.98784 4.94592 36.68992-4.25984 16.30208-6.36928 29.41952-12.75904 39.36256-19.13856 9.91232-6.36928 15.23712-17.7152 15.95392-34.02752 9.91232 2.12992 20.55168 4.2496 31.90784 6.37952a782.7968 782.7968 0 0 1 35.09248 7.45472c7.07584 14.88896 12.3904 27.98592 15.95392 39.34208a93.75744 93.75744 0 0 1 4.2496 34.03776c-18.44224-2.14016-35.9936-4.07552-52.64384-5.84704a886.33344 886.33344 0 0 1-55.83872-7.97696c-6.37952-12.75904-15.95392-18.25792-28.71296-16.47616-12.75904 1.76128-21.98528 10.45504-27.648 26.05056-5.6832 16.31232-13.66016 32.44032-23.93088 48.39424-10.28096 15.94368-20.03968 29.24544-29.2352 39.8848-14.88896 17.01888-17.37728 29.2352-7.44448 36.68992 9.91232 7.44448 34.73408 6.1952 74.45504-3.71712 17.70496 2.12992 35.97312 4.78208 54.76352 7.96672a1209.9584 1209.9584 0 0 1 95.72352 20.20352c12.3904 3.19488 21.44256 6.20544 27.12576 9.04192 9.20576 4.25984 16.64 7.61856 22.3232 10.10688 5.66272 2.47808 11.17184 3.71712 16.4864 3.71712 5.33504 0 10.8032-1.4336 16.47616-4.2496 5.67296-2.85696 13.47584-7.09632 23.40864-12.76928a610.304 610.304 0 0 0 26.05056-17.01888c6.01088-4.25984 9.5744-7.97696 10.62912-11.17184 1.06496-3.18464 0-6.56384-3.18464-10.09664-3.19488-3.55328-8.69376-7.81312-16.4864-12.75904-4.97664-3.56352-10.63936-9.22624-17.01888-17.01888a159.3344 159.3344 0 0 1-17.02912-25.5488z m7.43424-321.1776c-3.55328-5.69344-4.78208-12.41088-3.71712-20.21376 1.06496-7.81312 3.35872-14.52032 6.912-20.20352 7.07584-12.05248 6.72768-21.27872-1.06496-27.65824-7.81312-6.37952-23.04-10.98752-45.7216-13.83424-16.31232-1.40288-31.20128-2.816-44.65664-4.2496-13.48608-1.41312-26.42944-2.65216-38.83008-3.71712a1157.5296 1157.5296 0 0 1-77.1072-9.04192c-3.55328-24.81152-11.34592-37.91872-23.38816-39.35232-6.38976 0-11.8784 1.95584-16.4864 5.84704-4.61824 3.90144-8.69376 9.04192-12.2368 15.42144a128 128 0 0 0-9.04192 20.21376 94.33088 94.33088 0 0 0-4.79232 19.13856c-4.95616 26.95168-10.99776 50.14528-18.0736 69.66272-7.09632 19.49696-14.53056 35.62496-22.3232 48.39424-12.0832 19.13856-14.73536 31.19104-7.9872 36.16768 6.72768 4.93568 28.88704 3.87072 66.46784-3.19488 19.84512 2.816 39.17824 6.01088 57.96864 9.5744 18.76992 3.54304 36.33152 7.07584 52.6336 10.63936 16.30208 3.54304 30.49472 7.26016 42.5472 11.1616 12.04224 3.8912 21.25824 7.61856 27.65824 11.17184 6.36928 4.25984 12.04224 7.26016 17.01888 9.05216a32.84992 32.84992 0 0 0 15.42144 1.5872c5.31456-0.7168 11.32544-2.49856 18.08384-5.3248 6.72768-2.83648 15.04256-7.45472 24.9856-13.824 17.01888-9.94304 29.5936-18.45248 37.75488-25.52832 8.1408-7.09632 13.1072-13.47584 14.88896-19.13856 1.75104-5.69344 0.16384-11.008-4.79232-15.95392-4.9664-4.97664-12.06272-10.6496-21.26848-17.02912-5.6832-3.55328-10.99776-7.43424-15.95392-11.69408-4.97664-4.2496-9.94304-10.28096-14.8992-18.0736z m-13.83424 557.28128c-12.75904-3.56352-25.69216-7.09632-38.8096-10.63936a376.7296 376.7296 0 0 0-39.8848-8.4992v-39.36256a631.72608 631.72608 0 0 0 27.648 8.51968c14.1824 4.2496 25.69216 6.00064 34.56 5.31456a62.17728 62.17728 0 0 0 24.99584-7.43424c19.83488-10.6496 28.8768-20.21376 27.11552-28.7232-1.78176-8.51968-17.54112-16.32256-47.32928-23.40864-12.75904-2.82624-24.46336-5.48864-35.09248-7.96672a662.9376 662.9376 0 0 0-33.50528-6.912c-11.69408-2.12992-24.29952-4.25984-37.75488-6.37952-13.47584-2.12992-29.0816-4.62848-46.7968-7.44448-19.13856-3.55328-34.21184-4.9664-45.2096-4.25984-10.99776 0.70656-20.38784 2.82624-28.18048 6.38976-26.95168 12.75904-39.71072 21.61664-38.27712 26.5728 1.41312 4.95616 18.08384 9.216 49.98144 12.76928 9.92256 1.42336 20.3776 2.83648 31.37536 4.25984a253.19424 253.19424 0 0 1 35.62496 7.44448V595.7632c-22.70208-1.42336-43.25376-1.42336-61.67552 0-18.44224 1.42336-33.3312 4.95616-44.66688 10.6496-21.98528 9.91232-31.90784 16.82432-29.77792 20.72576 2.12992 3.8912 18.76992 7.61856 49.98144 11.17184a638.40256 638.40256 0 0 1 44.66688 5.31456 1021.7472 1021.7472 0 0 1 41.46176 7.44448c-0.70656 31.90784-2.48832 56.89344-5.31456 74.97728-2.84672 18.08384-6.38976 29.952-10.63936 35.62496-22.70208 26.94144-30.13632 44.65664-22.33344 53.17632 7.79264 8.50944 33.32096 6.36928 76.58496-6.38976 17.70496-5.6832 31.90784-10.62912 42.53696-14.88896 10.63936-4.25984 18.08384-8.68352 22.33344-13.28128 4.2496-4.62848 6.1952-9.75872 5.84704-15.42144-0.36864-5.6832-2.304-12.41088-5.84704-20.21376a186.7264 186.7264 0 0 1-13.29152-30.84288c-3.18464-9.94304-5.50912-23.04-6.912-39.35232a420.31104 420.31104 0 0 1 31.90784 10.6496c20.55168 7.0656 36.5056 11.1616 47.86176 12.22656a57.88672 57.88672 0 0 0 31.90784-5.85728c24.09472-11.34592 34.19136-22.3232 30.3104-32.96256-3.8912-10.63936-25.69216-21.98528-65.40288-34.03776z m-190.3616-264.81664c24.82176 2.82624 50.688 7.45472 77.63968 13.83424 9.20576 2.11968 18.78016 4.42368 28.7232 6.90176 9.92256 2.47808 17.7152 9.39008 23.3984 20.736 4.25984 12.04224 6.37952 20.02944 6.37952 23.93088 0 3.88096-3.90144 5.13024-11.70432 3.71712-14.88896-2.12992-34.2016-4.79232-57.9584-7.97696-23.76704-3.19488-50.16576-7.63904-79.23712-13.30176 2.82624-9.216 5.3248-17.54112 7.44448-24.9856 2.12992-7.43424 3.8912-15.0528 5.31456-22.85568z m0-341.38112a682.2912 682.2912 0 0 1 45.73184 7.44448 1009.13152 1009.13152 0 0 1 46.7968 10.63936c9.20576 2.11968 16.31232 7.07584 21.27872 14.88896 4.94592 7.79264 8.50944 19.83488 10.62912 36.1472 0.70656 7.80288 1.23904 13.99808 1.59744 18.60608 0.3584 4.59776-0.88064 7.9872-3.71712 10.10688-2.84672 2.11968-7.81312 3.19488-14.8992 3.19488-7.08608 0-17.01888-1.06496-29.77792-3.19488-17.7152-3.56352-33.14688-6.57408-46.26432-9.04192l-41.99424-7.97696c2.816-16.31232 5.13024-31.0272 6.90176-44.14464 1.77152-13.11744 3.01056-25.31328 3.71712-36.66944z m616.84736 389.23264a22.44608 22.44608 0 0 1-4.78208-12.75904c-0.36864-4.9664 1.2288-9.22624 4.78208-12.75904 7.07584-9.9328 6.5536-17.92-1.5872-23.93088-8.17152-6.02112-29.24544-10.81344-63.2832-14.34624 30.48448-12.06272 48.20992-21.80096 53.16608-29.2352 4.94592-7.45472 2.82624-14.72512-6.37952-21.8112a615.18848 615.18848 0 0 1-18.59584-15.42144 356.3008 356.3008 0 0 1-18.60608-17.55136c16.29184 2.82624 31.17056 5.67296 44.65664 8.50944a488.36608 488.36608 0 0 1 38.28736 9.5744c15.57504 4.25984 28.52864 7.60832 38.8096 10.10688 10.27072 2.47808 18.96448 3.71712 26.0608 3.71712a42.7008 42.7008 0 0 0 19.13856-4.2496 111.3088 111.3088 0 0 0 18.0736-11.70432c32.62464-27.65824 45.91616-47.86176 39.89504-60.63104-6.0416-12.75904-33.49504-15.95392-82.42176-9.5744a601.46688 601.46688 0 0 1-38.2976 3.19488 483.62496 483.62496 0 0 1-44.65664 0c-16.32256-0.7168-34.22208-1.78176-53.7088-3.19488a4322.9184 4322.9184 0 0 1-65.41312-5.3248c-27.648-2.82624-51.23072-5.49888-70.71744-7.95648a1023.83616 1023.83616 0 0 1-49.99168-7.46496c-13.824-2.48832-25.50784-4.78208-35.09248-6.90176-9.5744-2.12992-18.25792-4.62848-26.0608-7.46496-9.20576-2.82624-16.8448-4.95616-22.85568-6.36928a39.35232 39.35232 0 0 0-17.02912-0.53248c-5.31456 1.06496-10.63936 3.34848-15.95392 6.90176-5.31456 3.54304-11.53024 8.51968-18.60608 14.88896-7.81312 7.07584-13.66016 12.76928-17.54112 17.01888-3.91168 4.25984-4.62848 7.60832-2.12992 10.10688 2.47808 2.47808 8.32512 4.2496 17.55136 5.31456 9.20576 1.06496 23.02976 1.9456 41.46176 2.6624 3.54304 0 11.70432 0.69632 24.4736 2.14016a1581.7728 1581.7728 0 0 1 48.91648 6.36928c-4.2496 12.05248-7.6288 21.61664-10.10688 28.7232-2.48832 7.07584-4.07552 13.44512-4.78208 19.13856-6.37952 20.55168-6.912 32.256-1.5872 35.09248 5.31456 2.82624 18.23744 0 38.8096-8.4992 16.30208-7.81312 27.2896-16.13824 32.9728-24.99584 5.67296-8.86784 6.72768-22.50752 3.19488-40.93952 16.30208 2.12992 31.00672 4.25984 44.1344 6.37952a861.06112 861.06112 0 0 0 37.76512 5.31456c9.91232 21.27872 15.75936 38.63552 17.54112 52.1216a133.08928 133.08928 0 0 1-0.53248 39.35232c-17.72544-2.12992-38.28736-4.44416-61.67552-6.912-23.3984-2.48832-44.31872-5.15072-62.75072-7.97696-7.09632-10.62912-16.85504-14.35648-29.24544-11.1616-12.41088 3.19488-21.4528 11.85792-27.11552 26.05056a319.76448 319.76448 0 0 1-20.21376 46.25408c-7.81312 14.52032-15.59552 25.69216-23.38816 33.49504-18.45248 20.56192-25.36448 33.85344-20.74624 39.8848 4.608 6.01088 27.12576 5.14048 67.54304-2.65216 20.55168 2.11968 40.92928 4.79232 61.15328 7.97696 20.21376 3.18464 38.8096 6.5536 55.82848 10.09664a753.80736 753.80736 0 0 1 43.07968 10.09664c11.69408 3.19488 19.67104 6.5536 23.92064 10.10688 10.63936 9.20576 22.33344 14.52032 35.10272 15.95392 12.7488 1.41312 29.40928-3.19488 49.98144-13.83424 17.70496-9.22624 31.19104-17.01888 40.40704-23.3984 9.20576-6.38976 14.88896-12.07296 17.01888-17.01888 2.11968-4.9664 1.41312-9.5744-2.12992-13.83424-3.56352-4.25984-9.5744-8.86784-18.0736-13.824-6.38976-4.25984-11.71456-7.9872-15.96416-11.17184a67.79904 67.79904 0 0 1-11.70432-11.14112z m14.88896-353.08544c-4.9664-7.08608-6.90176-14.53056-5.8368-22.33344a34.5088 34.5088 0 0 1 10.0864-20.20352c12.06272-14.1824 13.4656-25.87648 4.27008-35.11296-9.22624-9.19552-31.22176-13.81376-65.9456-13.81376-10.62912 0-23.57248-0.17408-38.81984-0.53248s-31.744-0.89088-49.44896-1.60768a2945.7408 2945.7408 0 0 1-54.24128-2.65216c-18.44224-1.06496-36.51584-1.9456-54.24128-2.6624-4.2496-13.45536-9.75872-21.80096-16.47616-24.9856-6.74816-3.19488-11.88864-4.79232-15.43168-4.79232-7.80288 0-15.42144 5.15072-22.84544 15.42144-7.46496 10.2912-12.2368 23.23456-14.35648 38.81984-3.56352 29.77792-8.17152 55.296-13.83424 76.57472-5.6832 21.26848-12.07296 38.98368-19.13856 53.17632-11.34592 21.9648-11.70432 36.85376-1.06496 44.65664 10.61888 7.80288 35.44064 5.67296 74.43456-6.36928 32.6144 2.816 60.08832 5.66272 82.432 8.4992 22.34368 2.816 41.1136 5.67296 56.36096 8.50944 15.24736 2.82624 27.48416 5.66272 36.68992 8.50944a137.4208 137.4208 0 0 1 25.52832 10.62912c6.37952 3.54304 12.05248 6.02112 17.01888 7.45472a37.96992 37.96992 0 0 0 15.42144 1.06496c5.31456-0.7168 11.32544-2.67264 18.08384-5.85728 6.71744-3.19488 15.0528-7.96672 24.99584-14.34624 19.84512-12.75904 35.09248-23.2448 45.7216-31.37536 10.62912-8.15104 17.5616-15.08352 20.736-20.736 3.19488-5.69344 2.82624-10.82368-1.06496-15.42144-3.91168-4.61824-10.46528-9.74848-19.68128-15.4112-7.81312-4.25984-14.87872-9.22624-21.26848-14.8992a126.11584 126.11584 0 0 1-18.08384-20.20352z m-28.7232 587.06944c-10.61888-2.12992-24.63744-4.62848-41.99424-7.44448-17.38752-2.84672-35.6352-5.6832-54.79424-8.50944v-44.66688l12.76928 4.25984c4.2496 1.40288 8.1408 2.816 11.70432 4.25984 17.01888 5.66272 30.65856 8.4992 40.93952 8.4992s21.8112-3.55328 34.57024-10.62912c8.50944-4.25984 15.0528-8.50944 19.68128-12.75904 4.59776-4.25984 6.18496-8.51968 4.78208-12.76928-1.4336-4.2496-6.36928-8.50944-14.88896-12.76928-8.50944-4.2496-21.26848-8.4992-38.27712-12.76928a936.26368 936.26368 0 0 0-74.45504-17.54112c-24.1152-4.61824-53.54496-9.40032-88.2688-14.35648-24.84224-3.55328-43.9808-4.78208-57.42592-3.71712-13.47584 1.06496-25.18016 3.71712-35.09248 7.9872-24.84224 10.62912-35.6352 18.60608-32.45056 23.92064 3.19488 5.3248 21.44256 9.73824 54.77376 13.30176 9.20576 1.41312 21.27872 3.34848 36.15744 5.8368 14.88896 2.47808 30.84288 5.48864 47.86176 9.05216v52.10112c-37.59104-5.6832-66.11968-7.61856-85.6064-5.8368-19.5072 1.75104-34.92864 5.13024-46.27456 10.09664-19.85536 7.80288-28.53888 14.34624-26.05056 19.68128 2.46784 5.31456 18.24768 9.73824 47.32928 13.28128 12.06272 1.41312 27.82208 3.88096 47.32928 7.45472 19.48672 3.54304 40.58112 7.7824 63.2832 12.76928-0.70656 31.90784-2.31424 55.64416-4.78208 71.24992-2.49856 15.59552-6.58432 28.0064-12.2368 37.2224-12.06272 18.432-20.3776 32.60416-24.97536 42.53696-4.61824 9.9328-4.61824 16.31232 0 19.1488 4.59776 2.82624 14.16192 2.47808 28.71296-1.06496 14.52032-3.55328 34.90816-8.87808 61.14304-15.95392 15.59552-4.25984 27.65824-8.50944 36.16768-12.75904 8.4992-4.27008 14.35648-9.41056 17.55136-15.42144 3.19488-6.0416 3.71712-12.9536 1.5872-20.75648-2.11968-7.80288-6.03136-17.7152-11.70432-29.76768-2.83648-4.9664-5.31456-12.22656-7.44448-21.80096-2.12992-9.5744-3.91168-21.10464-5.3248-34.56a5059.9936 5059.9936 0 0 0 32.96256 9.5744 186.91072 186.91072 0 0 1 26.60352 9.5744c19.13856 7.07584 34.19136 10.63936 45.19936 10.63936 10.97728 0 22.85568-3.19488 35.62496-9.58464 13.4656-6.36928 23.3984-12.41088 29.77792-18.0736 6.38976-5.6832 8.31488-11.17184 5.84704-16.4864-2.47808-5.31456-10.28096-10.63936-23.38816-15.95392-13.13792-5.3248-32.11264-10.83392-56.92416-16.49664z m-221.19424-633.856c21.26848 2.83648 41.472 5.15072 60.61056 6.912 19.1488 1.78176 38.63552 4.08576 58.50112 6.92224 13.45536 1.42336 22.85568 6.56384 28.19072 15.42144 5.31456 8.84736 10.0864 23.56224 14.34624 44.1344 3.54304 14.1824 1.9456 24.27904-4.79232 30.32064-6.74816 6.01088-21.4528 7.26016-44.1344 3.71712-18.44224-2.84672-37.9392-5.69344-58.49088-8.51968-20.57216-2.82624-41.13408-5.31456-61.68576-7.44448 2.82624-17.00864 4.78208-33.14688 5.8368-48.384 1.0752-15.24736 1.61792-29.60384 1.61792-43.07968z m15.94368 359.4752c19.84512 2.816 38.28736 5.84704 55.296 9.03168 17.01888 3.19488 34.73408 6.92224 53.16608 11.1616 7.80288 1.42336 13.99808 4.95616 18.61632 10.6496a54.99904 54.99904 0 0 1 10.09664 19.13856c3.54304 11.32544 4.608 18.96448 3.19488 22.85568-1.4336 3.90144-4.9664 5.48864-10.62912 4.79232-14.19264-2.83648-33.6896-6.37952-58.49088-10.62912-24.832-4.2496-52.48-8.86784-82.95424-13.83424 2.80576-9.9328 5.31456-18.98496 7.43424-27.10528 2.14016-8.18176 3.55328-16.85504 4.27008-26.0608z"  horiz-adv-x="1024" />

    
    <glyph glyph-name="arrowdown" unicode="&#58938;" d="M512.133 271.01800000000003l-292.16 292.15500001c-12.27 12.28-32.186 12.28-44.45700001-1e-8-12.28099999-12.27-12.281-32.186 0-44.457l314.38800001-314.388c12.27-12.28 32.186-12.28 44.45699999 0l314.38700002 314.388c6.14 6.136 9.211 14.183 9.21099999 22.228s-3.071 16.092-9.211 22.228c-12.27 12.28-32.186 12.28-44.457 0l-292.159-292.15499999z"  horiz-adv-x="1024" />

    
    <glyph glyph-name="qq" unicode="&#58891;" d="M505.100496-37.75495599999999c0-49.769286-72.758538-90.122761-162.514449-90.122761s-162.392166 40.353475-162.392167 90.122761S252.952419 52.24552200000005 342.70833 52.24552200000005s162.514449-40.353475 162.514449-90.122761zM680.576971 52.24552200000005c-89.755911 0-162.514449-40.353475-162.51445-90.122761s72.758538-90.122761 162.51445-90.122761 162.514449 40.353475 162.514449 90.122761S770.210599 52.24552200000005 680.576971 52.24552200000005zM870.84972 394.638643s-12.228326 12.228326-25.434918 24.456652V562.533556a333.466444 333.466444 0 1 1-666.932887 0V419.095295C165.15304 406.866969 152.924714 394.638643 152.924714 394.638643c-21.644137-33.01648-73.369955-117.269644-73.369955-196.876044s21.76642-93.179842 29.959398-93.791259S145.098585 110.94148600000005 178.359632 162.30045399999995c45.122522-149.919274 177.18844-258.506807 333.221877-258.506807S800.169997 12.381179999999972 845.047953 162.30045399999995c33.505613-51.603535 61.753045-59.30738 69.334607-58.573681s29.959398 14.307141 29.959398 93.791259-51.725818 163.859565-73.369955 196.509195zM266.648144 337.16551200000004a429.336518 429.336518 0 0 1-3.668498-58.451397c0-182.079771 113.478863-330.164796 253.37091-330.164796s253.37091 147.595892 253.37091 330.164796a429.336518 429.336518 0 0 1-3.913064 58.451397z m157.623119 405.858133c-36.684977 0-67.255792-40.842608-67.255792-91.223311s30.081681-91.22331 67.255792-91.22331 67.255792 40.842608 67.255792 91.22331-30.081681 91.22331-67.255792 91.223311zM435.399039 614.748507c-13.573442 0-24.456652 16.752806-24.456651 37.418677s11.005493 37.418677 24.456651 37.418677 24.456652-16.752806 24.456652-37.418677-11.005493-37.418677-24.456652-37.418677z m166.305231 128.275138c-36.684977 0-67.255792-40.842608-67.255792-91.223311s30.081681-91.22331 67.255792-91.22331 67.255792 40.842608 67.255791 91.22331-30.081681 91.22331-67.255791 91.223311z m11.372343-94.647242a1.834249 1.834249 0 0 0-1.834249-1.834249 1.711966 1.711966 0 0 0-1.711966 1.345116 24.456652 24.456652 0 0 1-20.66587 17.853356A24.456652 24.456652 0 0 1 568.68779 647.642704a1.711966 1.711966 0 0 0-1.589682-1.10055 1.834249 1.834249 0 0 0-1.834249 1.834249V651.433485c0 20.665871 11.005493 37.418677 24.456651 37.418676s24.456652-16.752806 24.456652-37.418676v-3.179365zM247.938805 355.50800100000004c-6.114163-30.570814-19.076188-167.894913-12.962025-198.465727s31.793647-25.434918 68.723191-25.801768 77.527585-10.14951 78.139001 34.728446 0.7337 133.288751 10.88321 165.93838-144.783377 23.600669-144.783377 23.600669zM239.86811 289.96417499999995l143.560545-46.467638a416.863626 416.863626 0 0 0 9.415811 88.166229c10.14951 32.64963-144.783377 23.845235-144.783378 23.845235-2.201099-11.127776-5.380463-36.684977-8.192978-65.543826zM512.559775 433.769286c111.889181 0 202.867925 40.720325 202.867924 65.910676 0 19.076188-90.734177 38.763793-202.623358 38.763792s-202.623358-17.731072-202.623358-38.763792c0-23.845235 90.734177-65.910676 202.623358-65.910676zM514.63859 409.190351s128.519704-1.345116 231.115357 42.187724 101.617387 48.913303 112.867447 48.913303 24.456652-16.14139 30.081682-45.244805 12.228326-52.092668-12.228326-66.399809-180.979221-106.508717-357.923096-106.508718h-8.804394c-176.943874 0-333.955577 92.32386-357.923095 106.508718s-17.364223 36.684977-12.228326 66.399809 18.831622 45.244805 30.081681 45.244805 10.14951-4.89133 112.867447-48.913303 231.115357-42.187724 231.115357-42.187724z"  horiz-adv-x="1024" />

    
    <glyph glyph-name="shoukuanma" unicode="&#58907;" d="M1006.49588 319.089555l-393.43270875-347.31591375a138.50398031 138.50398031 0 0 0-174.71391936 0L44.87814406 317.86079717999996a56.33083969 56.33083969 0 0 0-10.44443626 52.22218313c5.49100875 18.04737187 19.66011561 32.1012825 37.63069033 37.40029875 4.5310425 1.4975475 9.29247655 2.18872406 14.01551252 2.07352782l115.77197059 0L201.85188125 773.46094313A88.70091281 88.70091281 0 0 0 227.69418219 838.2394884400001 87.43375689 87.43375689 0 0 0 292.08874156 863.96659312L758.51730969 863.96659312a87.43375689 87.43375689 0 0 0 64.39455937-25.72710468 88.70091281 88.70091281 0 0 0 25.8423-64.77854531l0-361.83060844 117.42311439 0c21.54165001-0.38398688 40.93297594-13.28593781 49.76466749-33.09964875 8.8316925-19.81371094 5.49100875-42.96810469-8.56290188-59.44113094l-0.84477 0z m-355.57162594 155.62978406a32.86925625 32.86925625 0 0 1 24.45994875 11.13561282 33.36843844 33.36843844 0 0 1 8.10211781 25.76550281 32.52366844 32.52366844 0 0 1-8.29411125 25.2279225 32.02448531 32.02448531 0 0 1-24.22955718 10.48283531l-79.10124657 0 82.36513313 82.97951156a38.01467719 38.01467719 0 0 1 0 53.52773719 37.40029875 37.40029875 0 0 1-53.14375031 0l-75.79896188-76.79732719-76.22134781 76.41334125a37.40029875 37.40029875 0 0 1-62.85861281-17.01060845 38.01467719 38.01467719 0 0 1 9.7148625-36.5555278l82.40353218-82.9795125-78.71726062 0a32.02448531 32.02448531 0 0 1-24.19115813-10.48283531 32.52366844 32.52366844 0 0 1-8.33251031-25.18952343 33.36843844 33.36843844 0 0 1 8.0637197-25.80390188c6.2589825-7.02695531 15.12907313-11.09721376 24.49834686-11.13561188l82.36513407 0 0-45.23362594L399.64339813 429.06332812a30.79572844 30.79572844 0 0 1-24.22955626-9.59966625 31.2565125 31.2565125 0 0 1-8.33251031-24.84393562 34.59719625 34.59719625 0 0 1 8.06371969-26.18788875c6.14378625-7.25734781 15.01387781-11.59639687 24.49834688-11.98038281l82.36513406 0 0-54.37250813c0-24.95913187 20.12089969-45.23362594 44.92643625-45.23362594 24.80553654 0 44.92643625 20.27449406 44.92643719 45.23362594l0 54.79489313 82.36513312 0c20.62008281 0 30.48853875 14.09230969 30.4885397 34.82758875s-14.39949844 37.78428469-35.0195822 37.78428468l-79.48523344 0 0 45.23362594 80.75238939 0z"  horiz-adv-x="1064" />

    
    <glyph glyph-name="iconfontzhizuobiaozhun38" unicode="&#58946;" d="M1020.358 913.7139999999999h-1016.716l1016.716-1016.759v1016.759zM432.267 614.55c3.356 10.068 5.529 19.347 8.487 33.76l25.866 127.737c2.171 9.677 5.727 23.099 10.265 37.117-2.565-2.962-2.565-2.962-9.28-10.859-3.554-3.948-12.044-13.228-16.585-17.767l-64.756-64.756c-13.228-13.228-21.913-23.099-28.033-31.194l-28.825 28.825c7.5 5.527 17.966 14.806 31.39 28.231l101.873 101.873c10.263 10.263 16.978 17.767 23.887 27.047l30.8-30.8c-3.157-6.711-5.526-16.189-8.882-32.97l-25.271-125.171c-2.369-11.845-6.32-28.429-9.872-40.671 6.909 8.489 18.163 20.928 26.455 29.22l66.337 66.337c11.649 11.649 19.348 20.138 25.665 28.823l28.826-28.826c-9.083-6.71-16.782-13.621-28.825-25.664l-104.442-104.442c-11.055-11.055-18.162-18.951-23.888-27.045l-31.194 31.193zM578.163 468.655l-61.598 61.598c-11.845 11.845-17.374 16.978-25.667 24.479 9.084 6.714 15.991 12.833 27.638 24.48l106.809 106.809c10.268 10.268 15.794 16.585 23.89 27.047 7.5-8.292 12.436-13.623 24.479-25.667l59.625-59.625c9.872-9.872 16.782-15.99 26.85-24.085l-26.061-26.061c-6.515 8.492-12.439 15.202-24.085 26.85l-56.86 56.86-40.671-40.671 47.974-47.974c10.265-10.265 17.375-16.583 27.049-24.281l-25.866-25.866c-6.91 9.28-12.043 14.807-24.283 27.047l-48.173 48.173-46.593-46.593 59.229-59.229c11.056-11.056 17.175-16.388 26.654-23.89l-26.259-26.259c-6.117 8.099-12.039 14.811-24.083 26.855zM763.94 322.759l52.317 94.566c5.53 9.872 11.252 19.15 19.545 30.996-13.425-9.082-23.098-14.807-31.194-19.348l-94.369-52.514c-11.254-6.516-19.152-11.254-24.481-15.399l-26.259 26.259c3.948 5.922 3.948 5.922 15.004 25.665l81.934 144.718c8.093 14.806 12.24 22.9 15.595 31.389l31.589-31.589c-6.316-7.106-11.253-14.018-17.769-24.874l-56.859-93.582c-4.739-7.502-12.636-19.742-18.362-27.836 14.807 9.676 21.716 13.82 28.825 17.769l98.121 54.293c10.66 5.924 18.556 11.055 24.479 15.792l24.283-24.283c-4.145-5.329-10.068-14.807-15.202-24.284l-53.894-98.119c-3.754-6.516-6.714-11.451-18.363-29.418 5.529 3.552 5.529 3.552 13.621 9.279 3.753 2.566 13.029 8.687 15.203 10.068l92.791 56.07c9.476 5.529 18.755 12.439 24.479 17.767l31.588-31.588c-9.476-3.948-16.581-7.502-31.19-15.793l-144.718-81.538c-6.91-4.147-11.451-6.714-13.622-8.094-7.106-3.949-7.106-3.949-11.845-7.502l-26.457 26.457c3.949 5.523 10.464 15.986 15.204 24.675z"  horiz-adv-x="1024" />

    
    </font>
</defs>
</svg>
